mtllib l2.mtl
o node
usemtl DefaultMaterial
v -13 3.9000000953674316 20
v -13 0.1071963682770729 40
v -13 3.9000000953674316 40
v 13 0.1071963682770729 40
v -13 3.9000000953674316 40
v -13 0.1071963682770729 40
v 13 3.9000000953674316 40
v -13 3.9000000953674316 20
v -13 3.9000000953674316 40
v 13 0.1071963682770729 40
v 13 3.9000000953674316 40
v -13 3.9000000953674316 40
v -13 3.9000000953674316 20
v -13 -1.7394170761108398 39.646244049072266
v -13 0.1071963682770729 40
v 13 0.1071963682770729 40
v -13 0.1071963682770729 40
v -13 -1.7394170761108398 39.646244049072266
v -13 3.9000000953674316 20
v -13 -3.323317527770996 38.63718795776367
v -13 -1.7394170761108398 39.646244049072266
v 13 -1.7394170761108398 39.646244049072266
v -13 -1.7394170761108398 39.646244049072266
v -13 -3.323317527770996 38.63718795776367
v 13 0.1071963682770729 40
v -13 -1.7394170761108398 39.646244049072266
v 13 -1.7394170761108398 39.646244049072266
v -13 3.9000000953674316 20
v -13 -4.424342632293701 37.11309051513672
v -13 -3.323317527770996 38.63718795776367
v 13 -3.323317527770996 38.63718795776367
v -13 -3.323317527770996 38.63718795776367
v -13 -4.424342632293701 37.11309051513672
v 13 -1.7394170761108398 39.646244049072266
v -13 -3.323317527770996 38.63718795776367
v 13 -3.323317527770996 38.63718795776367
v -13 2.8700242182821967e-10 16.806255340576172
v -13 -17.25046157836914 9.607388496398926
v -13 -4.424342632293701 37.11309051513672
v 13 -4.424342632293701 37.11309051513672
v -13 -4.424342632293701 37.11309051513672
v -13 -17.25046157836914 9.607388496398926
v -13 0.3959682285785675 18.348140716552734
v -13 2.8700242182821967e-10 16.806255340576172
v -13 -4.424342632293701 37.11309051513672
v -13 1.485878586769104 19.508438110351562
v -13 0.3959682285785675 18.348140716552734
v -13 -4.424342632293701 37.11309051513672
v -13 3 20
v -13 1.485878586769104 19.508438110351562
v -13 -4.424342632293701 37.11309051513672
v -13 3.9000000953674316 20
v -13 3 20
v -13 -4.424342632293701 37.11309051513672
v 13 -3.323317527770996 38.63718795776367
v -13 -4.424342632293701 37.11309051513672
v 13 -4.424342632293701 37.11309051513672
v -13 2.8699531640086207e-10 6
v -13 -17.810285568237305 7.95794153213501
v -13 -17.25046157836914 9.607388496398926
v 13 -17.25046157836914 9.607388496398926
v -13 -17.25046157836914 9.607388496398926
v -13 -17.810285568237305 7.95794153213501
v -13 2.8700242182821967e-10 16.806255340576172
v -13 2.8699531640086207e-10 6
v -13 -17.25046157836914 9.607388496398926
v 13 -4.424342632293701 37.11309051513672
v -13 -17.25046157836914 9.607388496398926
v 13 -17.25046157836914 9.607388496398926
v -13 2.8699531640086207e-10 6
v -13 -18 6.226442813873291
v -13 -17.810285568237305 7.95794153213501
v 13 -17.810285568237305 7.95794153213501
v -13 -17.810285568237305 7.95794153213501
v -13 -18 6.226442813873291
v 13 -17.25046157836914 9.607388496398926
v -13 -17.810285568237305 7.95794153213501
v 13 -17.810285568237305 7.95794153213501
v -13 2.8699531640086207e-10 6
v -13 -18 4
v -13 -18 6.226442813873291
v 13 -18 4
v -13 -18 6.226442813873291
v -13 -18 4
v 13 -18 6.226442813873291
v -13 -18 6.226442813873291
v 13 -18 4
v 13 -17.810285568237305 7.95794153213501
v -13 -18 6.226442813873291
v 13 -18 6.226442813873291
v -13 -0.4630938768386841 -1.42665433883667
v -13 -18 -2.170865297317505
v -13 -18 4
v 13 -18 -2.170865297317505
v -13 -18 4
v -13 -18 -2.170865297317505
v -13 2.055070638656616 3.0766751766204834
v -13 2.8587024211883545 2.348949432373047
v -13 -18 4
v -13 0.4630938768386841 1.42665433883667
v -13 -18 4
v -13 2.8587024211883545 2.348949432373047
v -13 1.073116421699524 3.5407967567443848
v -13 2.055070638656616 3.0766751766204834
v -13 -18 4
v -13 2.8700242182821967e-10 3.700000047683716
v -13 1.073116421699524 3.5407967567443848
v -13 -18 4
v -13 2.8699531640086207e-10 6
v -13 2.8700242182821967e-10 3.700000047683716
v -13 -18 4
v -13 -1.213530421257019 0.8814136385917664
v -13 -1.5 1.4210854715202004e-14
v -13 -18 4
v -13 -1.213530421257019 -0.8814136385917664
v -13 -18 4
v -13 -1.5 1.4210854715202004e-14
v -13 -0.4630938768386841 1.42665433883667
v -13 -1.213530421257019 0.8814136385917664
v -13 -18 4
v -13 0.4630938768386841 1.42665433883667
v -13 -0.4630938768386841 1.42665433883667
v -13 -18 4
v -13 -1.213530421257019 -0.8814136385917664
v -13 -0.4630938768386841 -1.42665433883667
v -13 -18 4
v 13 -18 4
v -13 -18 4
v 13 -18 -2.170865297317505
v -13 -6.28908634185791 -11.543839454650879
v -13 -13.660065650939941 -13.773332595825195
v -13 -18 -2.170865297317505
v 13 -13.660065650939941 -13.773332595825195
v -13 -18 -2.170865297317505
v -13 -13.660065650939941 -13.773332595825195
v -13 2.61954402923584 -2.613042116165161
v -13 -6.28908634185791 -11.543839454650879
v -13 -18 -2.170865297317505
v -13 3.264694929122925 -1.7408581972122192
v -13 2.61954402923584 -2.613042116165161
v -13 -18 -2.170865297317505
v -13 -0.4630938768386841 -1.42665433883667
v -13 3.264694929122925 -1.7408581972122192
v -13 -18 -2.170865297317505
v 13 -18 -2.170865297317505
v -13 -18 -2.170865297317505
v 13 -13.660065650939941 -13.773332595825195
v -13 -6.28908634185791 -11.543839454650879
v -13 -9.519577026367188 -14.774330139160156
v -13 -13.660065650939941 -13.773332595825195
v 13 -9.519577026367188 -14.774330139160156
v -13 -13.660065650939941 -13.773332595825195
v -13 -9.519577026367188 -14.774330139160156
v 13 -13.660065650939941 -13.773332595825195
v -13 -13.660065650939941 -13.773332595825195
v 13 -9.519577026367188 -14.774330139160156
v 13 -6.28908634185791 -11.543839454650879
v -13 -9.519577026367188 -14.774330139160156
v -13 -6.28908634185791 -11.543839454650879
v 13 -9.519577026367188 -14.774330139160156
v -13 -9.519577026367188 -14.774330139160156
v 13 -6.28908634185791 -11.543839454650879
v 13 2.61954402923584 -2.613042116165161
v -13 -6.28908634185791 -11.543839454650879
v -13 2.61954402923584 -2.613042116165161
v 13 -6.28908634185791 -11.543839454650879
v -13 -6.28908634185791 -11.543839454650879
v 13 2.61954402923584 -2.613042116165161
v 13 2.61954402923584 -2.613042116165161
v -13 2.61954402923584 -2.613042116165161
v -13 3.264694929122925 -1.7408581972122192
v -13 1.213530421257019 -0.8814136385917664
v -13 3.629586935043335 -0.7178741693496704
v -13 3.264694929122925 -1.7408581972122192
v 13 3.264694929122925 -1.7408581972122192
v -13 3.264694929122925 -1.7408581972122192
v -13 3.629586935043335 -0.7178741693496704
v -13 0.4630938768386841 -1.42665433883667
v -13 1.213530421257019 -0.8814136385917664
v -13 3.264694929122925 -1.7408581972122192
v -13 -0.4630938768386841 -1.42665433883667
v -13 0.4630938768386841 -1.42665433883667
v -13 3.264694929122925 -1.7408581972122192
v 13 2.61954402923584 -2.613042116165161
v -13 3.264694929122925 -1.7408581972122192
v 13 3.264694929122925 -1.7408581972122192
v -13 1.5 1.4210854715202004e-14
v -13 3.681915283203125 0.36502519249916077
v -13 3.629586935043335 -0.7178741693496704
v 13 3.629586935043335 -0.7178741693496704
v -13 3.629586935043335 -0.7178741693496704
v -13 3.681915283203125 0.36502519249916077
v -13 1.213530421257019 -0.8814136385917664
v -13 1.5 1.4210854715202004e-14
v -13 3.629586935043335 -0.7178741693496704
v 13 3.264694929122925 -1.7408581972122192
v -13 3.629586935043335 -0.7178741693496704
v 13 3.629586935043335 -0.7178741693496704
v -13 1.213530421257019 0.8814136385917664
v -13 3.4173061847686768 1.4179826974868774
v -13 3.681915283203125 0.36502519249916077
v 13 3.681915283203125 0.36502519249916077
v -13 3.681915283203125 0.36502519249916077
v -13 3.4173061847686768 1.4179826974868774
v -13 1.5 1.4210854715202004e-14
v -13 1.213530421257019 0.8814136385917664
v -13 3.681915283203125 0.36502519249916077
v 13 3.629586935043335 -0.7178741693496704
v -13 3.681915283203125 0.36502519249916077
v 13 3.681915283203125 0.36502519249916077
v -13 0.4630938768386841 1.42665433883667
v -13 2.8587024211883545 2.348949432373047
v -13 3.4173061847686768 1.4179826974868774
v 13 3.4173061847686768 1.4179826974868774
v -13 3.4173061847686768 1.4179826974868774
v -13 2.8587024211883545 2.348949432373047
v -13 1.213530421257019 0.8814136385917664
v -13 0.4630938768386841 1.42665433883667
v -13 3.4173061847686768 1.4179826974868774
v 13 3.681915283203125 0.36502519249916077
v -13 3.4173061847686768 1.4179826974868774
v 13 3.4173061847686768 1.4179826974868774
v 13 2.8587024211883545 2.348949432373047
v -13 2.8587024211883545 2.348949432373047
v -13 2.055070638656616 3.0766751766204834
v 13 3.4173061847686768 1.4179826974868774
v -13 2.8587024211883545 2.348949432373047
v 13 2.8587024211883545 2.348949432373047
v 13 2.055070638656616 3.0766751766204834
v -13 2.055070638656616 3.0766751766204834
v -13 1.073116421699524 3.5407967567443848
v 13 2.8587024211883545 2.348949432373047
v -13 2.055070638656616 3.0766751766204834
v 13 2.055070638656616 3.0766751766204834
v 13 1.073116421699524 3.5407967567443848
v -13 1.073116421699524 3.5407967567443848
v -13 2.8700242182821967e-10 3.700000047683716
v 13 2.055070638656616 3.0766751766204834
v -13 1.073116421699524 3.5407967567443848
v 13 1.073116421699524 3.5407967567443848
v 13 2.8699531640086207e-10 6
v -13 2.8700242182821967e-10 3.700000047683716
v -13 2.8699531640086207e-10 6
v 13 2.8700242182821967e-10 3.700000047683716
v -13 2.8700242182821967e-10 3.700000047683716
v 13 2.8699531640086207e-10 6
v 13 1.073116421699524 3.5407967567443848
v -13 2.8700242182821967e-10 3.700000047683716
v 13 2.8700242182821967e-10 3.700000047683716
v 13 2.8700242182821967e-10 16.806255340576172
v -13 2.8699531640086207e-10 6
v -13 2.8700242182821967e-10 16.806255340576172
v 13 2.8699531640086207e-10 6
v -13 2.8699531640086207e-10 6
v 13 2.8700242182821967e-10 16.806255340576172
v 13 2.8700242182821967e-10 16.806255340576172
v -13 2.8700242182821967e-10 16.806255340576172
v -13 0.3959682285785675 18.348140716552734
v 13 0.3959682285785675 18.348140716552734
v -13 0.3959682285785675 18.348140716552734
v -13 1.485878586769104 19.508438110351562
v 13 2.8700242182821967e-10 16.806255340576172
v -13 0.3959682285785675 18.348140716552734
v 13 0.3959682285785675 18.348140716552734
v 13 1.485878586769104 19.508438110351562
v -13 1.485878586769104 19.508438110351562
v -13 3 20
v 13 0.3959682285785675 18.348140716552734
v -13 1.485878586769104 19.508438110351562
v 13 1.485878586769104 19.508438110351562
v 13 3.9000000953674316 20
v -13 3 20
v -13 3.9000000953674316 20
v 13 3 20
v -13 3 20
v 13 3.9000000953674316 20
v 13 1.485878586769104 19.508438110351562
v -13 3 20
v 13 3 20
v 13 3.9000000953674316 20
v -13 3.9000000953674316 20
v 13 3.9000000953674316 40
v 13 -1.5 1.4210854715202004e-14
v -13 -1.5 1.4210854715202004e-14
v -13 -1.213530421257019 0.8814136385917664
v 13 -1.213530421257019 -0.8814136385917664
v -13 -1.213530421257019 -0.8814136385917664
v -13 -1.5 1.4210854715202004e-14
v 13 -1.213530421257019 -0.8814136385917664
v -13 -1.5 1.4210854715202004e-14
v 13 -1.5 1.4210854715202004e-14
v 13 -1.213530421257019 0.8814136385917664
v -13 -1.213530421257019 0.8814136385917664
v -13 -0.4630938768386841 1.42665433883667
v 13 -1.213530421257019 0.8814136385917664
v 13 -1.5 1.4210854715202004e-14
v -13 -1.213530421257019 0.8814136385917664
v 13 -0.4630938768386841 1.42665433883667
v -13 -0.4630938768386841 1.42665433883667
v -13 0.4630938768386841 1.42665433883667
v 13 -1.213530421257019 0.8814136385917664
v -13 -0.4630938768386841 1.42665433883667
v 13 -0.4630938768386841 1.42665433883667
v 13 0.4630938768386841 1.42665433883667
v -13 0.4630938768386841 1.42665433883667
v -13 1.213530421257019 0.8814136385917664
v 13 -0.4630938768386841 1.42665433883667
v -13 0.4630938768386841 1.42665433883667
v 13 0.4630938768386841 1.42665433883667
v 13 1.213530421257019 0.8814136385917664
v -13 1.213530421257019 0.8814136385917664
v -13 1.5 1.4210854715202004e-14
v 13 0.4630938768386841 1.42665433883667
v -13 1.213530421257019 0.8814136385917664
v 13 1.213530421257019 0.8814136385917664
v 13 1.5 1.4210854715202004e-14
v -13 1.5 1.4210854715202004e-14
v -13 1.213530421257019 -0.8814136385917664
v 13 1.213530421257019 0.8814136385917664
v -13 1.5 1.4210854715202004e-14
v 13 1.5 1.4210854715202004e-14
v 13 1.213530421257019 -0.8814136385917664
v -13 1.213530421257019 -0.8814136385917664
v -13 0.4630938768386841 -1.42665433883667
v 13 1.5 1.4210854715202004e-14
v -13 1.213530421257019 -0.8814136385917664
v 13 1.213530421257019 -0.8814136385917664
v 13 0.4630938768386841 -1.42665433883667
v -13 0.4630938768386841 -1.42665433883667
v -13 -0.4630938768386841 -1.42665433883667
v 13 1.213530421257019 -0.8814136385917664
v -13 0.4630938768386841 -1.42665433883667
v 13 0.4630938768386841 -1.42665433883667
v 13 -0.4630938768386841 -1.42665433883667
v -13 -0.4630938768386841 -1.42665433883667
v -13 -1.213530421257019 -0.8814136385917664
v 13 0.4630938768386841 -1.42665433883667
v -13 -0.4630938768386841 -1.42665433883667
v 13 -0.4630938768386841 -1.42665433883667
v 13 -0.4630938768386841 -1.42665433883667
v -13 -1.213530421257019 -0.8814136385917664
v 13 -1.213530421257019 -0.8814136385917664
v 13 3 20
v 13 3.9000000953674316 20
v 13 3.9000000953674316 40
v 13 -4.424342632293701 37.11309051513672
v 13 3 20
v 13 3.9000000953674316 40
v 13 -3.323317527770996 38.63718795776367
v 13 -4.424342632293701 37.11309051513672
v 13 3.9000000953674316 40
v 13 -1.7394170761108398 39.646244049072266
v 13 -3.323317527770996 38.63718795776367
v 13 3.9000000953674316 40
v 13 0.1071963682770729 40
v 13 -1.7394170761108398 39.646244049072266
v 13 3.9000000953674316 40
v 13 -4.424342632293701 37.11309051513672
v 13 1.485878586769104 19.508438110351562
v 13 3 20
v 13 -17.25046157836914 9.607388496398926
v 13 0.3959682285785675 18.348140716552734
v 13 1.485878586769104 19.508438110351562
v 13 -4.424342632293701 37.11309051513672
v 13 -17.25046157836914 9.607388496398926
v 13 1.485878586769104 19.508438110351562
v 13 -17.25046157836914 9.607388496398926
v 13 2.8700242182821967e-10 16.806255340576172
v 13 0.3959682285785675 18.348140716552734
v 13 -18 6.226442813873291
v 13 2.8699531640086207e-10 6
v 13 2.8700242182821967e-10 16.806255340576172
v 13 -17.810285568237305 7.95794153213501
v 13 -18 6.226442813873291
v 13 2.8700242182821967e-10 16.806255340576172
v 13 -17.25046157836914 9.607388496398926
v 13 -17.810285568237305 7.95794153213501
v 13 2.8700242182821967e-10 16.806255340576172
v 13 -18 4
v 13 2.8700242182821967e-10 3.700000047683716
v 13 2.8699531640086207e-10 6
v 13 -18 6.226442813873291
v 13 -18 4
v 13 2.8699531640086207e-10 6
v 13 -18 -2.170865297317505
v 13 1.073116421699524 3.5407967567443848
v 13 2.8700242182821967e-10 3.700000047683716
v 13 -18 4
v 13 -18 -2.170865297317505
v 13 2.8700242182821967e-10 3.700000047683716
v 13 -18 -2.170865297317505
v 13 2.055070638656616 3.0766751766204834
v 13 1.073116421699524 3.5407967567443848
v 13 -18 -2.170865297317505
v 13 2.8587024211883545 2.348949432373047
v 13 2.055070638656616 3.0766751766204834
v 13 0.4630938768386841 1.42665433883667
v 13 3.4173061847686768 1.4179826974868774
v 13 2.8587024211883545 2.348949432373047
v 13 -0.4630938768386841 1.42665433883667
v 13 2.8587024211883545 2.348949432373047
v 13 -18 -2.170865297317505
v 13 -0.4630938768386841 1.42665433883667
v 13 0.4630938768386841 1.42665433883667
v 13 2.8587024211883545 2.348949432373047
v 13 1.213530421257019 0.8814136385917664
v 13 3.681915283203125 0.36502519249916077
v 13 3.4173061847686768 1.4179826974868774
v 13 0.4630938768386841 1.42665433883667
v 13 1.213530421257019 0.8814136385917664
v 13 3.4173061847686768 1.4179826974868774
v 13 1.5 1.4210854715202004e-14
v 13 3.629586935043335 -0.7178741693496704
v 13 3.681915283203125 0.36502519249916077
v 13 1.213530421257019 0.8814136385917664
v 13 1.5 1.4210854715202004e-14
v 13 3.681915283203125 0.36502519249916077
v 13 0.4630938768386841 -1.42665433883667
v 13 3.264694929122925 -1.7408581972122192
v 13 3.629586935043335 -0.7178741693496704
v 13 1.213530421257019 -0.8814136385917664
v 13 0.4630938768386841 -1.42665433883667
v 13 3.629586935043335 -0.7178741693496704
v 13 1.5 1.4210854715202004e-14
v 13 1.213530421257019 -0.8814136385917664
v 13 3.629586935043335 -0.7178741693496704
v 13 -18 -2.170865297317505
v 13 2.61954402923584 -2.613042116165161
v 13 3.264694929122925 -1.7408581972122192
v 13 0.4630938768386841 -1.42665433883667
v 13 -18 -2.170865297317505
v 13 3.264694929122925 -1.7408581972122192
v 13 -13.660065650939941 -13.773332595825195
v 13 -6.28908634185791 -11.543839454650879
v 13 2.61954402923584 -2.613042116165161
v 13 -18 -2.170865297317505
v 13 -13.660065650939941 -13.773332595825195
v 13 2.61954402923584 -2.613042116165161
v 13 -13.660065650939941 -13.773332595825195
v 13 -9.519577026367188 -14.774330139160156
v 13 -6.28908634185791 -11.543839454650879
v 13 -1.213530421257019 -0.8814136385917664
v 13 -1.5 1.4210854715202004e-14
v 13 -18 -2.170865297317505
v 13 -1.213530421257019 0.8814136385917664
v 13 -18 -2.170865297317505
v 13 -1.5 1.4210854715202004e-14
v 13 -0.4630938768386841 -1.42665433883667
v 13 -1.213530421257019 -0.8814136385917664
v 13 -18 -2.170865297317505
v 13 0.4630938768386841 -1.42665433883667
v 13 -0.4630938768386841 -1.42665433883667
v 13 -18 -2.170865297317505
v 13 -1.213530421257019 0.8814136385917664
v 13 -0.4630938768386841 1.42665433883667
v 13 -18 -2.170865297317505
vn -1 0 0
vn -1 0 0
vn -1 0 0
vn 0 0 1
vn 0 0 1
vn 0 0 1
vn 0 1 -3.55271373174006e-16
vn 0 1 -3.55271373174006e-16
vn 0 1 -3.55271373174006e-16
vn 0 0 1
vn 0 0 1
vn 0 0 1
vn -1 0 0
vn -1 0 0
vn -1 0 0
vn 0 -0.18814916577839627 0.982140464198932
vn 0 -0.18814916577839627 0.982140464198932
vn 0 -0.18814916577839627 0.982140464198932
vn -1 0 0
vn -1 0 0
vn -1 0 0
vn 0 -0.5372996382978465 0.843391426731979
vn 0 -0.5372996382978465 0.843391426731979
vn 0 -0.5372996382978465 0.843391426731979
vn 0 -0.18814916577839627 0.982140464198932
vn 0 -0.18814916577839627 0.982140464198932
vn 0 -0.18814916577839627 0.982140464198932
vn -1 0 0
vn -1 0 0
vn -1 0 0
vn 0 -0.8106062830727391 0.5855915418130613
vn 0 -0.8106062830727391 0.5855915418130613
vn 0 -0.8106062830727391 0.5855915418130613
vn 0 -0.5372996382978465 0.843391426731979
vn 0 -0.5372996382978465 0.843391426731979
vn 0 -0.5372996382978465 0.843391426731979
vn -1 9.439210756237795e-17 2.0565639013256742e-17
vn -1 9.439210756237795e-17 2.0565639013256742e-17
vn -1 0 0
vn 0 -0.9063077891669693 0.42261825717221474
vn 0 -0.9063077891669693 0.42261825717221474
vn 0 -0.9063077891669693 0.42261825717221474
vn -1 0 0
vn -1 9.439210756237795e-17 2.0565639013256742e-17
vn -1 0 0
vn -1 0 0
vn -1 0 0
vn -1 0 0
vn -1 0 0
vn -1 0 0
vn -1 0 0
vn -1 0 0
vn -1 0 0
vn -1 0 0
vn 0 -0.8106062830727391 0.5855915418130613
vn 0 -0.8106062830727391 0.5855915418130613
vn 0 -0.8106062830727391 0.5855915418130613
vn -1 9.615019061885325e-17 -3.263346630529902e-17
vn -1 9.615019061885325e-17 -3.263346630529902e-17
vn -1 9.439210756237795e-17 2.0565639013256742e-17
vn 0 -0.9469454916872364 0.3213942061911168
vn 0 -0.9469454916872364 0.3213942061911168
vn 0 -0.9469454916872364 0.3213942061911168
vn -1 9.439210756237795e-17 2.0565639013256742e-17
vn -1 9.615019061885325e-17 -3.263346630529902e-17
vn -1 9.439210756237795e-17 2.0565639013256742e-17
vn 0 -0.9063077891669693 0.42261825717221474
vn 0 -0.9063077891669693 0.42261825717221474
vn 0 -0.9063077891669693 0.42261825717221474
vn -1 9.615019061885325e-17 -3.263346630529902e-17
vn -1 9.855065552159234e-17 -1.0797818847281436e-17
vn -1 9.615019061885325e-17 -3.263346630529902e-17
vn 0 -0.9940511335935899 0.10891438748530442
vn 0 -0.9940511335935899 0.10891438748530442
vn 0 -0.9940511335935899 0.10891438748530442
vn 0 -0.9469454916872364 0.3213942061911168
vn 0 -0.9469454916872364 0.3213942061911168
vn 0 -0.9469454916872364 0.3213942061911168
vn -1 9.615019061885325e-17 -3.263346630529902e-17
vn -1 9.868649181306335e-17 0
vn -1 9.855065552159234e-17 -1.0797818847281436e-17
vn 0 -1 0
vn 0 -1 0
vn 0 -1 0
vn 0 -1 0
vn 0 -1 0
vn 0 -1 0
vn 0 -0.9940511335935899 0.10891438748530442
vn 0 -0.9940511335935899 0.10891438748530442
vn 0 -0.9940511335935899 0.10891438748530442
vn -1 1.0129248793696471e-16 0
vn -1 1.0129248793696471e-16 0
vn -1 9.868649181306335e-17 0
vn 0 -1 0
vn 0 -1 0
vn 0 -1 0
vn -1 9.331841389239432e-17 1.0305208638832221e-16
vn -1 9.331841389239432e-17 1.0305208638832221e-16
vn -1 9.868649181306335e-17 0
vn -1 7.063831925371728e-17 -1.83478996313196e-16
vn -1 9.868649181306335e-17 0
vn -1 9.331841389239432e-17 1.0305208638832221e-16
vn -1 9.813276387613055e-17 2.0762209552279353e-16
vn -1 9.331841389239432e-17 1.0305208638832221e-16
vn -1 9.868649181306335e-17 0
vn -1 1.1117630364023833e-16 7.493883655233639e-16
vn -1 9.813276387613055e-17 2.0762209552279353e-16
vn -1 9.868649181306335e-17 0
vn -1 9.615019061885325e-17 -3.263346630529902e-17
vn -1 1.1117630364023833e-16 7.493883655233639e-16
vn -1 9.868649181306335e-17 0
vn -1 9.979507265256202e-17 -3.2434545911592266e-17
vn -1 9.979507265256202e-17 -3.2434545911592266e-17
vn -1 9.868649181306335e-17 0
vn -1 1.1686592982606387e-16 3.7982770534785543e-17
vn -1 9.868649181306335e-17 0
vn -1 9.979507265256202e-17 -3.2434545911592266e-17
vn -1 8.427258508919612e-17 -1.1598771547843877e-16
vn -1 9.979507265256202e-17 -3.2434545911592266e-17
vn -1 9.868649181306335e-17 0
vn -1 7.063831925371728e-17 -1.83478996313196e-16
vn -1 8.427258508919612e-17 -1.1598771547843877e-16
vn -1 9.868649181306335e-17 0
vn -1 1.1686592982606387e-16 3.7982770534785543e-17
vn -1 1.0129248793696471e-16 0
vn -1 9.868649181306335e-17 0
vn 0 -1 0
vn 0 -1 0
vn 0 -1 0
vn -1 4.160172872809689e-17 -1.3754040264687544e-16
vn -1 4.160172872809689e-17 -1.3754040264687544e-16
vn -1 1.0129248793696471e-16 0
vn 0 -0.9366205660872904 -0.35034542266500873
vn 0 -0.9366205660872904 -0.35034542266500873
vn 0 -0.9366205660872904 -0.35034542266500873
vn -1 8.434493361429246e-17 -8.413558412742264e-17
vn -1 4.160172872809689e-17 -1.3754040264687544e-16
vn -1 1.0129248793696471e-16 0
vn -1 8.480398576703489e-17 -6.272916234362005e-17
vn -1 8.434493361429246e-17 -8.413558412742264e-17
vn -1 1.0129248793696471e-16 0
vn -1 1.0129248793696471e-16 0
vn -1 8.480398576703489e-17 -6.272916234362005e-17
vn -1 1.0129248793696471e-16 0
vn 0 -0.9366205660872904 -0.35034542266500873
vn 0 -0.9366205660872904 -0.35034542266500873
vn 0 -0.9366205660872904 -0.35034542266500873
vn -1 4.160172872809689e-17 -1.3754040264687544e-16
vn -1 0 0
vn -1 4.160172872809689e-17 -1.3754040264687544e-16
vn 0 -0.2349885090026439 -0.9719981484739126
vn 0 -0.2349885090026439 -0.9719981484739126
vn 0 -0.2349885090026439 -0.9719981484739126
vn 0 -0.2349885090026439 -0.9719981484739126
vn 0 -0.2349885090026439 -0.9719981484739126
vn 0 -0.2349885090026439 -0.9719981484739126
vn 0 0.7071067811865476 -0.7071067811865476
vn 0 0.7071067811865476 -0.7071067811865476
vn 0 0.7071067811865476 -0.7071067811865476
vn 0 0.7071067811865476 -0.7071067811865476
vn 0 0.7071067811865476 -0.7071067811865476
vn 0 0.7071067811865476 -0.7071067811865476
vn 0 0.7079848673758599 -0.7062276032319793
vn 0 0.7079848673758599 -0.7062276032319793
vn 0 0.7079848673758599 -0.7062276032319793
vn 0 0.7079848673758599 -0.7062276032319793
vn 0 0.7079848673758599 -0.7062276032319793
vn 0 0.7079848673758599 -0.7062276032319793
vn 0 0.8039587815008626 -0.594685023897229
vn 0 0.8039587815008626 -0.594685023897229
vn 0 0.8039587815008626 -0.594685023897229
vn -1 0 0
vn -1 0 0
vn -1 8.480398576703489e-17 -6.272916234362005e-17
vn 0 0.9418757868729736 -0.33596131042490157
vn 0 0.9418757868729736 -0.33596131042490157
vn 0 0.9418757868729736 -0.33596131042490157
vn -1 0 0
vn -1 0 0
vn -1 8.480398576703489e-17 -6.272916234362005e-17
vn -1 1.0129248793696471e-16 0
vn -1 0 0
vn -1 8.480398576703489e-17 -6.272916234362005e-17
vn 0 0.8039587815008626 -0.594685023897229
vn 0 0.8039587815008626 -0.594685023897229
vn 0 0.8039587815008626 -0.594685023897229
vn -1 0 0
vn -1 0 0
vn -1 0 0
vn 0 0.9988345158164206 -0.048266033748142576
vn 0 0.9988345158164206 -0.048266033748142576
vn 0 0.9988345158164206 -0.048266033748142576
vn -1 0 0
vn -1 0 0
vn -1 0 0
vn 0 0.9418757868729736 -0.33596131042490157
vn 0 0.9418757868729736 -0.33596131042490157
vn 0 0.9418757868729736 -0.33596131042490157
vn -1 0 0
vn -1 0 0
vn -1 0 0
vn 0 0.9698449459716179 0.24372275390966203
vn 0 0.9698449459716179 0.24372275390966203
vn 0 0.9698449459716179 0.24372275390966203
vn -1 0 0
vn -1 0 0
vn -1 0 0
vn 0 0.9988345158164206 -0.048266033748142576
vn 0 0.9988345158164206 -0.048266033748142576
vn 0 0.9988345158164206 -0.048266033748142576
vn -1 7.063831925371728e-17 -1.83478996313196e-16
vn -1 9.331841389239432e-17 1.0305208638832221e-16
vn -1 0 0
vn 0 0.8574832853884087 0.5145118222932307
vn 0 0.8574832853884087 0.5145118222932307
vn 0 0.8574832853884087 0.5145118222932307
vn -1 0 0
vn -1 7.063831925371728e-17 -1.83478996313196e-16
vn -1 0 0
vn 0 0.9698449459716179 0.24372275390966203
vn 0 0.9698449459716179 0.24372275390966203
vn 0 0.9698449459716179 0.24372275390966203
vn 0 0.671232884644597 0.7412465275275784
vn 0 0.671232884644597 0.7412465275275784
vn 0 0.671232884644597 0.7412465275275784
vn 0 0.8574832853884087 0.5145118222932307
vn 0 0.8574832853884087 0.5145118222932307
vn 0 0.8574832853884087 0.5145118222932307
vn 0 0.4273231487534565 0.9040989583775833
vn 0 0.4273231487534565 0.9040989583775833
vn 0 0.4273231487534565 0.9040989583775833
vn 0 0.671232884644597 0.7412465275275784
vn 0 0.671232884644597 0.7412465275275784
vn 0 0.671232884644597 0.7412465275275784
vn 0 0.1467498809739976 0.9891736310851182
vn 0 0.1467498809739976 0.9891736310851182
vn 0 0.1467498809739976 0.9891736310851182
vn 0 0.4273231487534565 0.9040989583775833
vn 0 0.4273231487534565 0.9040989583775833
vn 0 0.4273231487534565 0.9040989583775833
vn 0 1 3.0893161411595397e-15
vn 0 1 3.0893161411595397e-15
vn 0 1 3.0893161411595397e-15
vn 0 1 3.0893161411595397e-15
vn 0 1 3.0893161411595397e-15
vn 0 1 3.0893161411595397e-15
vn 0 0.1467498809739976 0.9891736310851182
vn 0 0.1467498809739976 0.9891736310851182
vn 0 0.1467498809739976 0.9891736310851182
vn 0 1 -6.575290717617335e-16
vn 0 1 3.0893161411595397e-15
vn 0 1 -6.575290717617335e-16
vn 0 1 3.0893161411595397e-15
vn 0 1 3.0893161411595397e-15
vn 0 1 -6.575290717617335e-16
vn 0 0.9685710943292982 -0.24873687951276136
vn 0 0.9685710943292982 -0.24873687951276136
vn 0 0.9685710943292982 -0.24873687951276136
vn 0 0.7288689620778794 -0.684653223259421
vn 0 0.7288689620778794 -0.684653223259421
vn 0 0.7288689620778794 -0.684653223259421
vn 0 0.9685710943292982 -0.24873687951276136
vn 0 0.9685710943292982 -0.24873687951276136
vn 0 0.9685710943292982 -0.24873687951276136
vn 0 0.30878626954420485 -0.9511314523981286
vn 0 0.30878626954420485 -0.9511314523981286
vn 0 0.30878626954420485 -0.9511314523981286
vn 0 0.7288689620778794 -0.684653223259421
vn 0 0.7288689620778794 -0.684653223259421
vn 0 0.7288689620778794 -0.684653223259421
vn 0 0 -1
vn 0 0 -1
vn 0 0 -1
vn 0 0 -1
vn 0 0 -1
vn 0 0 -1
vn 0 0.30878626954420485 -0.9511314523981286
vn 0 0.30878626954420485 -0.9511314523981286
vn 0 0.30878626954420485 -0.9511314523981286
vn 0 1 -3.55271373174006e-16
vn 0 1 -3.55271373174006e-16
vn 0 1 -3.55271373174006e-16
vn 0 0.9510308606091802 -0.309095943307191
vn 0 0.9510308606091802 -0.309095943307191
vn 0 0.9510308606091802 -0.309095943307191
vn 0 0.9510308606091802 0.309095943307191
vn 0 0.9510308606091802 0.309095943307191
vn 0 0.9510308606091802 0.309095943307191
vn 0 0.9510308606091802 0.309095943307191
vn 0 0.9510308606091802 0.309095943307191
vn 0 0.9510308606091802 0.309095943307191
vn 0 0.5877969920214391 -0.8090084648324444
vn 0 0.5877969920214391 -0.8090084648324444
vn 0 0.5877969920214391 -0.8090084648324444
vn 0 0.9510308606091802 -0.309095943307191
vn 0 0.9510308606091802 -0.309095943307191
vn 0 0.9510308606091802 -0.309095943307191
vn 0 0 -1
vn 0 0 -1
vn 0 0 -1
vn 0 0.5877969920214391 -0.8090084648324444
vn 0 0.5877969920214391 -0.8090084648324444
vn 0 0.5877969920214391 -0.8090084648324444
vn 0 -0.5877969920214391 -0.8090084648324444
vn 0 -0.5877969920214391 -0.8090084648324444
vn 0 -0.5877969920214391 -0.8090084648324444
vn 0 0 -1
vn 0 0 -1
vn 0 0 -1
vn 0 -0.9510308606091802 -0.309095943307191
vn 0 -0.9510308606091802 -0.309095943307191
vn 0 -0.9510308606091802 -0.309095943307191
vn 0 -0.5877969920214391 -0.8090084648324444
vn 0 -0.5877969920214391 -0.8090084648324444
vn 0 -0.5877969920214391 -0.8090084648324444
vn 0 -0.9510308606091802 0.309095943307191
vn 0 -0.9510308606091802 0.309095943307191
vn 0 -0.9510308606091802 0.309095943307191
vn 0 -0.9510308606091802 -0.309095943307191
vn 0 -0.9510308606091802 -0.309095943307191
vn 0 -0.9510308606091802 -0.309095943307191
vn 0 -0.5877969920214391 0.8090084648324444
vn 0 -0.5877969920214391 0.8090084648324444
vn 0 -0.5877969920214391 0.8090084648324444
vn 0 -0.9510308606091802 0.309095943307191
vn 0 -0.9510308606091802 0.309095943307191
vn 0 -0.9510308606091802 0.309095943307191
vn 0 0 1
vn 0 0 1
vn 0 0 1
vn 0 -0.5877969920214391 0.8090084648324444
vn 0 -0.5877969920214391 0.8090084648324444
vn 0 -0.5877969920214391 0.8090084648324444
vn 0 0.5877969920214391 0.8090084648324444
vn 0 0.5877969920214391 0.8090084648324444
vn 0 0.5877969920214391 0.8090084648324444
vn 0 0 1
vn 0 0 1
vn 0 0 1
vn 0 0.5877969920214391 0.8090084648324444
vn 0 0.5877969920214391 0.8090084648324444
vn 0 0.5877969920214391 0.8090084648324444
vn 1 0 0
vn 1 0 0
vn 1 0 0
vn 1 0 0
vn 1 0 0
vn 1 0 0
vn 1 0 0
vn 1 0 0
vn 1 0 0
vn 1 0 0
vn 1 0 0
vn 1 0 0
vn 1 0 0
vn 1 0 0
vn 1 0 0
vn 1 0 0
vn 1 0 0
vn 1 0 0
vn 1 -1.8825467394893415e-16 1.7683447282823924e-16
vn 1 -1.8825467394893415e-16 1.7683447282823924e-16
vn 1 0 0
vn 1 0 0
vn 1 -1.8825467394893415e-16 1.7683447282823924e-16
vn 1 0 0
vn 1 -1.8825467394893415e-16 1.7683447282823924e-16
vn 1 -1.1533485159945272e-16 2.9618922368135266e-17
vn 1 -1.8825467394893415e-16 1.7683447282823924e-16
vn 1 -9.868649181306335e-17 6.488923360854088e-32
vn 1 -9.868649181306335e-17 6.488923360854088e-32
vn 1 -1.1533485159945272e-16 2.9618922368135266e-17
vn 1 -1.0547929900334881e-16 1.1556963854451977e-17
vn 1 -9.868649181306335e-17 6.488923360854088e-32
vn 1 -1.1533485159945272e-16 2.9618922368135266e-17
vn 1 -1.8825467394893415e-16 1.7683447282823924e-16
vn 1 -1.0547929900334881e-16 1.1556963854451977e-17
vn 1 -1.1533485159945272e-16 2.9618922368135266e-17
vn 1 -9.868649181306335e-17 -3.0487376980101878e-31
vn 1 -9.868649181306335e-17 -3.0487376980101878e-31
vn 1 -9.868649181306335e-17 6.488923360854088e-32
vn 1 -9.868649181306335e-17 6.488923360854088e-32
vn 1 -9.868649181306335e-17 -3.0487376980101878e-31
vn 1 -9.868649181306335e-17 6.488923360854088e-32
vn 1 -3.085409492857905e-17 -2.0797328332365904e-16
vn 1 -3.085409492857905e-17 -2.0797328332365904e-16
vn 1 -9.868649181306335e-17 -3.0487376980101878e-31
vn 1 -9.868649181306335e-17 -3.0487376980101878e-31
vn 1 -3.085409492857905e-17 -2.0797328332365904e-16
vn 1 -9.868649181306335e-17 -3.0487376980101878e-31
vn 1 -3.085409492857905e-17 -2.0797328332365904e-16
vn 1 -5.701229875458436e-17 -1.2062244153779789e-16
vn 1 -3.085409492857905e-17 -2.0797328332365904e-16
vn 1 -3.085409492857905e-17 -2.0797328332365904e-16
vn 1 -6.871796983083867e-17 -7.588566850962297e-17
vn 1 -5.701229875458436e-17 -1.2062244153779789e-16
vn 1 0 0
vn 1 0 0
vn 1 -6.871796983083867e-17 -7.588566850962297e-17
vn 1 -3.878634804486774e-16 1.3969537357869859e-15
vn 1 -6.871796983083867e-17 -7.588566850962297e-17
vn 1 -3.085409492857905e-17 -2.0797328332365904e-16
vn 1 -3.878634804486774e-16 1.3969537357869859e-15
vn 1 0 0
vn 1 -6.871796983083867e-17 -7.588566850962297e-17
vn 1 0 0
vn 1 0 0
vn 1 0 0
vn 1 0 0
vn 1 0 0
vn 1 0 0
vn 1 0 0
vn 1 0 0
vn 1 0 0
vn 1 0 0
vn 1 0 0
vn 1 0 0
vn 1 0 0
vn 1 0 0
vn 1 0 0
vn 1 0 0
vn 1 0 0
vn 1 0 0
vn 1 0 0
vn 1 0 0
vn 1 0 0
vn 1 -3.085409492857905e-17 -2.0797328332365904e-16
vn 1 -8.480398576703489e-17 6.272916234362005e-17
vn 1 0 0
vn 1 0 0
vn 1 -3.085409492857905e-17 -2.0797328332365904e-16
vn 1 0 0
vn 1 0 0
vn 1 0 0
vn 1 -8.480398576703489e-17 6.272916234362005e-17
vn 1 -3.085409492857905e-17 -2.0797328332365904e-16
vn 1 0 0
vn 1 -8.480398576703489e-17 6.272916234362005e-17
vn 1 0 0
vn 1 0 0
vn 1 0 0
vn 1 -1.0324321143193626e-16 -3.355523005781381e-17
vn 1 -1.0324321143193626e-16 -3.355523005781381e-17
vn 1 -3.085409492857905e-17 -2.0797328332365904e-16
vn 1 -1.1246719508674368e-16 3.6553131121052994e-17
vn 1 -3.085409492857905e-17 -2.0797328332365904e-16
vn 1 -1.0324321143193626e-16 -3.355523005781381e-17
vn 1 -9.570272561213147e-17 -1.3171947311933568e-16
vn 1 -1.0324321143193626e-16 -3.355523005781381e-17
vn 1 -3.085409492857905e-17 -2.0797328332365904e-16
vn 1 0 0
vn 1 -9.570272561213147e-17 -1.3171947311933568e-16
vn 1 -3.085409492857905e-17 -2.0797328332365904e-16
vn 1 -1.1246719508674368e-16 3.6553131121052994e-17
vn 1 -3.878634804486774e-16 1.3969537357869859e-15
vn 1 -3.085409492857905e-17 -2.0797328332365904e-16
f 1//1 2//2 3//3
f 4//4 5//5 6//6
f 7//7 8//8 9//9
f 10//10 11//11 12//12
f 13//13 14//14 15//15
f 16//16 17//17 18//18
f 19//19 20//20 21//21
f 22//22 23//23 24//24
f 25//25 26//26 27//27
f 28//28 29//29 30//30
f 31//31 32//32 33//33
f 34//34 35//35 36//36
f 37//37 38//38 39//39
f 40//40 41//41 42//42
f 43//43 44//44 45//45
f 46//46 47//47 48//48
f 49//49 50//50 51//51
f 52//52 53//53 54//54
f 55//55 56//56 57//57
f 58//58 59//59 60//60
f 61//61 62//62 63//63
f 64//64 65//65 66//66
f 67//67 68//68 69//69
f 70//70 71//71 72//72
f 73//73 74//74 75//75
f 76//76 77//77 78//78
f 79//79 80//80 81//81
f 82//82 83//83 84//84
f 85//85 86//86 87//87
f 88//88 89//89 90//90
f 91//91 92//92 93//93
f 94//94 95//95 96//96
f 97//97 98//98 99//99
f 100//100 101//101 102//102
f 103//103 104//104 105//105
f 106//106 107//107 108//108
f 109//109 110//110 111//111
f 112//112 113//113 114//114
f 115//115 116//116 117//117
f 118//118 119//119 120//120
f 121//121 122//122 123//123
f 124//124 125//125 126//126
f 127//127 128//128 129//129
f 130//130 131//131 132//132
f 133//133 134//134 135//135
f 136//136 137//137 138//138
f 139//139 140//140 141//141
f 142//142 143//143 144//144
f 145//145 146//146 147//147
f 148//148 149//149 150//150
f 151//151 152//152 153//153
f 154//154 155//155 156//156
f 157//157 158//158 159//159
f 160//160 161//161 162//162
f 163//163 164//164 165//165
f 166//166 167//167 168//168
f 169//169 170//170 171//171
f 172//172 173//173 174//174
f 175//175 176//176 177//177
f 178//178 179//179 180//180
f 181//181 182//182 183//183
f 184//184 185//185 186//186
f 187//187 188//188 189//189
f 190//190 191//191 192//192
f 193//193 194//194 195//195
f 196//196 197//197 198//198
f 199//199 200//200 201//201
f 202//202 203//203 204//204
f 205//205 206//206 207//207
f 208//208 209//209 210//210
f 211//211 212//212 213//213
f 214//214 215//215 216//216
f 217//217 218//218 219//219
f 220//220 221//221 222//222
f 223//223 224//224 225//225
f 226//226 227//227 228//228
f 229//229 230//230 231//231
f 232//232 233//233 234//234
f 235//235 236//236 237//237
f 238//238 239//239 240//240
f 241//241 242//242 243//243
f 244//244 245//245 246//246
f 247//247 248//248 249//249
f 250//250 251//251 252//252
f 253//253 254//254 255//255
f 256//256 257//257 258//258
f 259//259 260//260 261//261
f 262//262 263//263 264//264
f 265//265 266//266 267//267
f 268//268 269//269 270//270
f 271//271 272//272 273//273
f 274//274 275//275 276//276
f 277//277 278//278 279//279
f 280//280 281//281 282//282
f 283//283 284//284 285//285
f 286//286 287//287 288//288
f 289//289 290//290 291//291
f 292//292 293//293 294//294
f 295//295 296//296 297//297
f 298//298 299//299 300//300
f 301//301 302//302 303//303
f 304//304 305//305 306//306
f 307//307 308//308 309//309
f 310//310 311//311 312//312
f 313//313 314//314 315//315
f 316//316 317//317 318//318
f 319//319 320//320 321//321
f 322//322 323//323 324//324
f 325//325 326//326 327//327
f 328//328 329//329 330//330
f 331//331 332//332 333//333
f 334//334 335//335 336//336
f 337//337 338//338 339//339
f 340//340 341//341 342//342
f 343//343 344//344 345//345
f 346//346 347//347 348//348
f 349//349 350//350 351//351
f 352//352 353//353 354//354
f 355//355 356//356 357//357
f 358//358 359//359 360//360
f 361//361 362//362 363//363
f 364//364 365//365 366//366
f 367//367 368//368 369//369
f 370//370 371//371 372//372
f 373//373 374//374 375//375
f 376//376 377//377 378//378
f 379//379 380//380 381//381
f 382//382 383//383 384//384
f 385//385 386//386 387//387
f 388//388 389//389 390//390
f 391//391 392//392 393//393
f 394//394 395//395 396//396
f 397//397 398//398 399//399
f 400//400 401//401 402//402
f 403//403 404//404 405//405
f 406//406 407//407 408//408
f 409//409 410//410 411//411
f 412//412 413//413 414//414
f 415//415 416//416 417//417
f 418//418 419//419 420//420
f 421//421 422//422 423//423
f 424//424 425//425 426//426
f 427//427 428//428 429//429
f 430//430 431//431 432//432
f 433//433 434//434 435//435
f 436//436 437//437 438//438
f 439//439 440//440 441//441
f 442//442 443//443 444//444
f 445//445 446//446 447//447
f 448//448 449//449 450//450
f 451//451 452//452 453//453
f 454//454 455//455 456//456
