mtllib r2.mtl
o node
usemtl DefaultMaterial
v 13 -3.9000000953674316 20
v 13 -0.1071963682770729 40
v 13 -3.9000000953674316 40
v -13 -0.1071963682770729 40
v 13 -3.9000000953674316 40
v 13 -0.1071963682770729 40
v -13 -3.9000000953674316 40
v 13 -3.9000000953674316 20
v 13 -3.9000000953674316 40
v -13 -0.1071963682770729 40
v -13 -3.9000000953674316 40
v 13 -3.9000000953674316 40
v 13 -3.9000000953674316 20
v 13 1.7394170761108398 39.646244049072266
v 13 -0.1071963682770729 40
v -13 -0.1071963682770729 40
v 13 -0.1071963682770729 40
v 13 1.7394170761108398 39.646244049072266
v 13 -3.9000000953674316 20
v 13 3.323317527770996 38.63718795776367
v 13 1.7394170761108398 39.646244049072266
v -13 1.7394170761108398 39.646244049072266
v 13 1.7394170761108398 39.646244049072266
v 13 3.323317527770996 38.63718795776367
v -13 -0.1071963682770729 40
v 13 1.7394170761108398 39.646244049072266
v -13 1.7394170761108398 39.646244049072266
v 13 -3.9000000953674316 20
v 13 4.424342632293701 37.11309051513672
v 13 3.323317527770996 38.63718795776367
v -13 3.323317527770996 38.63718795776367
v 13 3.323317527770996 38.63718795776367
v 13 4.424342632293701 37.11309051513672
v -13 1.7394170761108398 39.646244049072266
v 13 3.323317527770996 38.63718795776367
v -13 3.323317527770996 38.63718795776367
v 13 -4.5212544819150935e-10 16.806255340576172
v 13 17.25046157836914 9.607388496398926
v 13 4.424342632293701 37.11309051513672
v -13 4.424342632293701 37.11309051513672
v 13 4.424342632293701 37.11309051513672
v 13 17.25046157836914 9.607388496398926
v 13 -0.3959682285785675 18.348140716552734
v 13 -4.5212544819150935e-10 16.806255340576172
v 13 4.424342632293701 37.11309051513672
v 13 -1.485878586769104 19.508438110351562
v 13 -0.3959682285785675 18.348140716552734
v 13 4.424342632293701 37.11309051513672
v 13 -3 20
v 13 -1.485878586769104 19.508438110351562
v 13 4.424342632293701 37.11309051513672
v 13 -3.9000000953674316 20
v 13 -3 20
v 13 4.424342632293701 37.11309051513672
v -13 3.323317527770996 38.63718795776367
v 13 4.424342632293701 37.11309051513672
v -13 4.424342632293701 37.11309051513672
v 13 -4.5211834276415175e-10 6
v 13 17.810285568237305 7.95794153213501
v 13 17.25046157836914 9.607388496398926
v -13 17.25046157836914 9.607388496398926
v 13 17.25046157836914 9.607388496398926
v 13 17.810285568237305 7.95794153213501
v 13 -4.5212544819150935e-10 16.806255340576172
v 13 -4.5211834276415175e-10 6
v 13 17.25046157836914 9.607388496398926
v -13 4.424342632293701 37.11309051513672
v 13 17.25046157836914 9.607388496398926
v -13 17.25046157836914 9.607388496398926
v 13 -4.5211834276415175e-10 6
v 13 18 6.226442813873291
v 13 17.810285568237305 7.95794153213501
v -13 17.810285568237305 7.95794153213501
v 13 17.810285568237305 7.95794153213501
v 13 18 6.226442813873291
v -13 17.25046157836914 9.607388496398926
v 13 17.810285568237305 7.95794153213501
v -13 17.810285568237305 7.95794153213501
v 13 -4.5211834276415175e-10 6
v 13 18 4
v 13 18 6.226442813873291
v -13 18 4
v 13 18 6.226442813873291
v 13 18 4
v -13 18 6.226442813873291
v 13 18 6.226442813873291
v -13 18 4
v -13 17.810285568237305 7.95794153213501
v 13 18 6.226442813873291
v -13 18 6.226442813873291
v 13 0.4630938768386841 -1.42665433883667
v 13 18 -2.170865297317505
v 13 18 4
v -13 18 -2.170865297317505
v 13 18 4
v 13 18 -2.170865297317505
v 13 -2.055070638656616 3.0766751766204834
v 13 -2.8587024211883545 2.348949432373047
v 13 18 4
v 13 -0.4630938768386841 1.42665433883667
v 13 18 4
v 13 -2.8587024211883545 2.348949432373047
v 13 -1.073116421699524 3.5407967567443848
v 13 -2.055070638656616 3.0766751766204834
v 13 18 4
v 13 -4.5212544819150935e-10 3.700000047683716
v 13 -1.073116421699524 3.5407967567443848
v 13 18 4
v 13 -4.5211834276415175e-10 6
v 13 -4.5212544819150935e-10 3.700000047683716
v 13 18 4
v 13 1.213530421257019 0.8814136385917664
v 13 1.5 -2.447215763368149e-10
v 13 18 4
v 13 1.213530421257019 -0.8814136385917664
v 13 18 4
v 13 1.5 -2.447215763368149e-10
v 13 0.4630938768386841 1.42665433883667
v 13 1.213530421257019 0.8814136385917664
v 13 18 4
v 13 -0.4630938768386841 1.42665433883667
v 13 0.4630938768386841 1.42665433883667
v 13 18 4
v 13 1.213530421257019 -0.8814136385917664
v 13 0.4630938768386841 -1.42665433883667
v 13 18 4
v -13 18 4
v 13 18 4
v -13 18 -2.170865297317505
v 13 6.28908634185791 -11.543839454650879
v 13 13.660065650939941 -13.773332595825195
v 13 18 -2.170865297317505
v -13 13.660065650939941 -13.773332595825195
v 13 18 -2.170865297317505
v 13 13.660065650939941 -13.773332595825195
v 13 -2.61954402923584 -2.613042116165161
v 13 6.28908634185791 -11.543839454650879
v 13 18 -2.170865297317505
v 13 -3.264694929122925 -1.7408581972122192
v 13 -2.61954402923584 -2.613042116165161
v 13 18 -2.170865297317505
v 13 0.4630938768386841 -1.42665433883667
v 13 -3.264694929122925 -1.7408581972122192
v 13 18 -2.170865297317505
v -13 18 -2.170865297317505
v 13 18 -2.170865297317505
v -13 13.660065650939941 -13.773332595825195
v 13 6.28908634185791 -11.543839454650879
v 13 9.519577026367188 -14.774330139160156
v 13 13.660065650939941 -13.773332595825195
v -13 9.519577026367188 -14.774330139160156
v 13 13.660065650939941 -13.773332595825195
v 13 9.519577026367188 -14.774330139160156
v -13 13.660065650939941 -13.773332595825195
v 13 13.660065650939941 -13.773332595825195
v -13 9.519577026367188 -14.774330139160156
v -13 6.28908634185791 -11.543839454650879
v 13 9.519577026367188 -14.774330139160156
v 13 6.28908634185791 -11.543839454650879
v -13 9.519577026367188 -14.774330139160156
v 13 9.519577026367188 -14.774330139160156
v -13 6.28908634185791 -11.543839454650879
v -13 -2.61954402923584 -2.613042116165161
v 13 6.28908634185791 -11.543839454650879
v 13 -2.61954402923584 -2.613042116165161
v -13 6.28908634185791 -11.543839454650879
v 13 6.28908634185791 -11.543839454650879
v -13 -2.61954402923584 -2.613042116165161
v -13 -2.61954402923584 -2.613042116165161
v 13 -2.61954402923584 -2.613042116165161
v 13 -3.264694929122925 -1.7408581972122192
v 13 -1.213530421257019 -0.8814136385917664
v 13 -3.629586935043335 -0.7178741693496704
v 13 -3.264694929122925 -1.7408581972122192
v -13 -3.264694929122925 -1.7408581972122192
v 13 -3.264694929122925 -1.7408581972122192
v 13 -3.629586935043335 -0.7178741693496704
v 13 -0.4630938768386841 -1.42665433883667
v 13 -1.213530421257019 -0.8814136385917664
v 13 -3.264694929122925 -1.7408581972122192
v 13 0.4630938768386841 -1.42665433883667
v 13 -0.4630938768386841 -1.42665433883667
v 13 -3.264694929122925 -1.7408581972122192
v -13 -2.61954402923584 -2.613042116165161
v 13 -3.264694929122925 -1.7408581972122192
v -13 -3.264694929122925 -1.7408581972122192
v 13 -1.5 -2.447215763368149e-10
v 13 -3.681915283203125 0.36502519249916077
v 13 -3.629586935043335 -0.7178741693496704
v -13 -3.629586935043335 -0.7178741693496704
v 13 -3.629586935043335 -0.7178741693496704
v 13 -3.681915283203125 0.36502519249916077
v 13 -1.213530421257019 -0.8814136385917664
v 13 -1.5 -2.447215763368149e-10
v 13 -3.629586935043335 -0.7178741693496704
v -13 -3.264694929122925 -1.7408581972122192
v 13 -3.629586935043335 -0.7178741693496704
v -13 -3.629586935043335 -0.7178741693496704
v 13 -1.213530421257019 0.8814136385917664
v 13 -3.4173061847686768 1.4179826974868774
v 13 -3.681915283203125 0.36502519249916077
v -13 -3.681915283203125 0.36502519249916077
v 13 -3.681915283203125 0.36502519249916077
v 13 -3.4173061847686768 1.4179826974868774
v 13 -1.5 -2.447215763368149e-10
v 13 -1.213530421257019 0.8814136385917664
v 13 -3.681915283203125 0.36502519249916077
v -13 -3.629586935043335 -0.7178741693496704
v 13 -3.681915283203125 0.36502519249916077
v -13 -3.681915283203125 0.36502519249916077
v 13 -0.4630938768386841 1.42665433883667
v 13 -2.8587024211883545 2.348949432373047
v 13 -3.4173061847686768 1.4179826974868774
v -13 -3.4173061847686768 1.4179826974868774
v 13 -3.4173061847686768 1.4179826974868774
v 13 -2.8587024211883545 2.348949432373047
v 13 -1.213530421257019 0.8814136385917664
v 13 -0.4630938768386841 1.42665433883667
v 13 -3.4173061847686768 1.4179826974868774
v -13 -3.681915283203125 0.36502519249916077
v 13 -3.4173061847686768 1.4179826974868774
v -13 -3.4173061847686768 1.4179826974868774
v -13 -2.8587024211883545 2.348949432373047
v 13 -2.8587024211883545 2.348949432373047
v 13 -2.055070638656616 3.0766751766204834
v -13 -3.4173061847686768 1.4179826974868774
v 13 -2.8587024211883545 2.348949432373047
v -13 -2.8587024211883545 2.348949432373047
v -13 -2.055070638656616 3.0766751766204834
v 13 -2.055070638656616 3.0766751766204834
v 13 -1.073116421699524 3.5407967567443848
v -13 -2.8587024211883545 2.348949432373047
v 13 -2.055070638656616 3.0766751766204834
v -13 -2.055070638656616 3.0766751766204834
v -13 -1.073116421699524 3.5407967567443848
v 13 -1.073116421699524 3.5407967567443848
v 13 -4.5212544819150935e-10 3.700000047683716
v -13 -2.055070638656616 3.0766751766204834
v 13 -1.073116421699524 3.5407967567443848
v -13 -1.073116421699524 3.5407967567443848
v -13 -4.5210413190943655e-10 6
v 13 -4.5212544819150935e-10 3.700000047683716
v 13 -4.5211834276415175e-10 6
v -13 -4.5211123733679415e-10 3.700000047683716
v 13 -4.5212544819150935e-10 3.700000047683716
v -13 -4.5210413190943655e-10 6
v -13 -1.073116421699524 3.5407967567443848
v 13 -4.5212544819150935e-10 3.700000047683716
v -13 -4.5211123733679415e-10 3.700000047683716
v -13 -4.5211123733679415e-10 16.806255340576172
v 13 -4.5211834276415175e-10 6
v 13 -4.5212544819150935e-10 16.806255340576172
v -13 -4.5210413190943655e-10 6
v 13 -4.5211834276415175e-10 6
v -13 -4.5211123733679415e-10 16.806255340576172
v -13 -4.5211123733679415e-10 16.806255340576172
v 13 -4.5212544819150935e-10 16.806255340576172
v 13 -0.3959682285785675 18.348140716552734
v -13 -0.3959682285785675 18.348140716552734
v 13 -0.3959682285785675 18.348140716552734
v 13 -1.485878586769104 19.508438110351562
v -13 -4.5211123733679415e-10 16.806255340576172
v 13 -0.3959682285785675 18.348140716552734
v -13 -0.3959682285785675 18.348140716552734
v -13 -1.485878586769104 19.508438110351562
v 13 -1.485878586769104 19.508438110351562
v 13 -3 20
v -13 -0.3959682285785675 18.348140716552734
v 13 -1.485878586769104 19.508438110351562
v -13 -1.485878586769104 19.508438110351562
v -13 -3.9000000953674316 20
v 13 -3 20
v 13 -3.9000000953674316 20
v -13 -3 20
v 13 -3 20
v -13 -3.9000000953674316 20
v -13 -1.485878586769104 19.508438110351562
v 13 -3 20
v -13 -3 20
v -13 -3.9000000953674316 20
v 13 -3.9000000953674316 20
v -13 -3.9000000953674316 40
v -13 1.5 -2.447215763368149e-10
v 13 1.5 -2.447215763368149e-10
v 13 1.213530421257019 0.8814136385917664
v -13 1.213530421257019 -0.8814136385917664
v 13 1.213530421257019 -0.8814136385917664
v 13 1.5 -2.447215763368149e-10
v -13 1.213530421257019 -0.8814136385917664
v 13 1.5 -2.447215763368149e-10
v -13 1.5 -2.447215763368149e-10
v -13 1.213530421257019 0.8814136385917664
v 13 1.213530421257019 0.8814136385917664
v 13 0.4630938768386841 1.42665433883667
v -13 1.213530421257019 0.8814136385917664
v -13 1.5 -2.447215763368149e-10
v 13 1.213530421257019 0.8814136385917664
v -13 0.4630938768386841 1.42665433883667
v 13 0.4630938768386841 1.42665433883667
v 13 -0.4630938768386841 1.42665433883667
v -13 1.213530421257019 0.8814136385917664
v 13 0.4630938768386841 1.42665433883667
v -13 0.4630938768386841 1.42665433883667
v -13 -0.4630938768386841 1.42665433883667
v 13 -0.4630938768386841 1.42665433883667
v 13 -1.213530421257019 0.8814136385917664
v -13 0.4630938768386841 1.42665433883667
v 13 -0.4630938768386841 1.42665433883667
v -13 -0.4630938768386841 1.42665433883667
v -13 -1.213530421257019 0.8814136385917664
v 13 -1.213530421257019 0.8814136385917664
v 13 -1.5 -2.447215763368149e-10
v -13 -0.4630938768386841 1.42665433883667
v 13 -1.213530421257019 0.8814136385917664
v -13 -1.213530421257019 0.8814136385917664
v -13 -1.5 -2.447215763368149e-10
v 13 -1.5 -2.447215763368149e-10
v 13 -1.213530421257019 -0.8814136385917664
v -13 -1.213530421257019 0.8814136385917664
v 13 -1.5 -2.447215763368149e-10
v -13 -1.5 -2.447215763368149e-10
v -13 -1.213530421257019 -0.8814136385917664
v 13 -1.213530421257019 -0.8814136385917664
v 13 -0.4630938768386841 -1.42665433883667
v -13 -1.5 -2.447215763368149e-10
v 13 -1.213530421257019 -0.8814136385917664
v -13 -1.213530421257019 -0.8814136385917664
v -13 -0.4630938768386841 -1.42665433883667
v 13 -0.4630938768386841 -1.42665433883667
v 13 0.4630938768386841 -1.42665433883667
v -13 -1.213530421257019 -0.8814136385917664
v 13 -0.4630938768386841 -1.42665433883667
v -13 -0.4630938768386841 -1.42665433883667
v -13 0.4630938768386841 -1.42665433883667
v 13 0.4630938768386841 -1.42665433883667
v 13 1.213530421257019 -0.8814136385917664
v -13 -0.4630938768386841 -1.42665433883667
v 13 0.4630938768386841 -1.42665433883667
v -13 0.4630938768386841 -1.42665433883667
v -13 0.4630938768386841 -1.42665433883667
v 13 1.213530421257019 -0.8814136385917664
v -13 1.213530421257019 -0.8814136385917664
v -13 -3 20
v -13 -3.9000000953674316 20
v -13 -3.9000000953674316 40
v -13 4.424342632293701 37.11309051513672
v -13 -3 20
v -13 -3.9000000953674316 40
v -13 3.323317527770996 38.63718795776367
v -13 4.424342632293701 37.11309051513672
v -13 -3.9000000953674316 40
v -13 1.7394170761108398 39.646244049072266
v -13 3.323317527770996 38.63718795776367
v -13 -3.9000000953674316 40
v -13 -0.1071963682770729 40
v -13 1.7394170761108398 39.646244049072266
v -13 -3.9000000953674316 40
v -13 4.424342632293701 37.11309051513672
v -13 -1.485878586769104 19.508438110351562
v -13 -3 20
v -13 17.25046157836914 9.607388496398926
v -13 -0.3959682285785675 18.348140716552734
v -13 -1.485878586769104 19.508438110351562
v -13 4.424342632293701 37.11309051513672
v -13 17.25046157836914 9.607388496398926
v -13 -1.485878586769104 19.508438110351562
v -13 17.25046157836914 9.607388496398926
v -13 -4.5211123733679415e-10 16.806255340576172
v -13 -0.3959682285785675 18.348140716552734
v -13 18 6.226442813873291
v -13 -4.5210413190943655e-10 6
v -13 -4.5211123733679415e-10 16.806255340576172
v -13 17.810285568237305 7.95794153213501
v -13 18 6.226442813873291
v -13 -4.5211123733679415e-10 16.806255340576172
v -13 17.25046157836914 9.607388496398926
v -13 17.810285568237305 7.95794153213501
v -13 -4.5211123733679415e-10 16.806255340576172
v -13 18 4
v -13 -4.5211123733679415e-10 3.700000047683716
v -13 -4.5210413190943655e-10 6
v -13 18 6.226442813873291
v -13 18 4
v -13 -4.5210413190943655e-10 6
v -13 18 -2.170865297317505
v -13 -1.073116421699524 3.5407967567443848
v -13 -4.5211123733679415e-10 3.700000047683716
v -13 18 4
v -13 18 -2.170865297317505
v -13 -4.5211123733679415e-10 3.700000047683716
v -13 18 -2.170865297317505
v -13 -2.055070638656616 3.0766751766204834
v -13 -1.073116421699524 3.5407967567443848
v -13 18 -2.170865297317505
v -13 -2.8587024211883545 2.348949432373047
v -13 -2.055070638656616 3.0766751766204834
v -13 -0.4630938768386841 1.42665433883667
v -13 -3.4173061847686768 1.4179826974868774
v -13 -2.8587024211883545 2.348949432373047
v -13 0.4630938768386841 1.42665433883667
v -13 -2.8587024211883545 2.348949432373047
v -13 18 -2.170865297317505
v -13 0.4630938768386841 1.42665433883667
v -13 -0.4630938768386841 1.42665433883667
v -13 -2.8587024211883545 2.348949432373047
v -13 -1.213530421257019 0.8814136385917664
v -13 -3.681915283203125 0.36502519249916077
v -13 -3.4173061847686768 1.4179826974868774
v -13 -0.4630938768386841 1.42665433883667
v -13 -1.213530421257019 0.8814136385917664
v -13 -3.4173061847686768 1.4179826974868774
v -13 -1.5 -2.447215763368149e-10
v -13 -3.629586935043335 -0.7178741693496704
v -13 -3.681915283203125 0.36502519249916077
v -13 -1.213530421257019 0.8814136385917664
v -13 -1.5 -2.447215763368149e-10
v -13 -3.681915283203125 0.36502519249916077
v -13 -0.4630938768386841 -1.42665433883667
v -13 -3.264694929122925 -1.7408581972122192
v -13 -3.629586935043335 -0.7178741693496704
v -13 -1.213530421257019 -0.8814136385917664
v -13 -0.4630938768386841 -1.42665433883667
v -13 -3.629586935043335 -0.7178741693496704
v -13 -1.5 -2.447215763368149e-10
v -13 -1.213530421257019 -0.8814136385917664
v -13 -3.629586935043335 -0.7178741693496704
v -13 18 -2.170865297317505
v -13 -2.61954402923584 -2.613042116165161
v -13 -3.264694929122925 -1.7408581972122192
v -13 -0.4630938768386841 -1.42665433883667
v -13 18 -2.170865297317505
v -13 -3.264694929122925 -1.7408581972122192
v -13 13.660065650939941 -13.773332595825195
v -13 6.28908634185791 -11.543839454650879
v -13 -2.61954402923584 -2.613042116165161
v -13 18 -2.170865297317505
v -13 13.660065650939941 -13.773332595825195
v -13 -2.61954402923584 -2.613042116165161
v -13 13.660065650939941 -13.773332595825195
v -13 9.519577026367188 -14.774330139160156
v -13 6.28908634185791 -11.543839454650879
v -13 1.213530421257019 -0.8814136385917664
v -13 1.5 -2.447215763368149e-10
v -13 18 -2.170865297317505
v -13 1.213530421257019 0.8814136385917664
v -13 18 -2.170865297317505
v -13 1.5 -2.447215763368149e-10
v -13 0.4630938768386841 -1.42665433883667
v -13 1.213530421257019 -0.8814136385917664
v -13 18 -2.170865297317505
v -13 -0.4630938768386841 -1.42665433883667
v -13 0.4630938768386841 -1.42665433883667
v -13 18 -2.170865297317505
v -13 1.213530421257019 0.8814136385917664
v -13 0.4630938768386841 1.42665433883667
v -13 18 -2.170865297317505
vn 1 -4.683492922506098e-16 0
vn 1 -4.683492922506098e-16 0
vn 1 -4.683492922506098e-16 0
vn 0 0 1
vn 0 0 1
vn 0 0 1
vn -5.46571355561446e-16 -1 0
vn -5.46571355561446e-16 -1 0
vn -5.46571355561446e-16 -1 0
vn 0 0 1
vn 0 0 1
vn 0 0 1
vn 1 -4.683492922506098e-16 0
vn 1 -9.44650000414451e-16 9.032576046296117e-17
vn 1 -4.683492922506098e-16 0
vn 1.0283694482855242e-16 0.18814916577839627 0.982140464198932
vn 1.0283694482855242e-16 0.18814916577839627 0.982140464198932
vn 1.0283694482855242e-16 0.18814916577839627 0.982140464198932
vn 1 -4.683492922506098e-16 0
vn 1 -9.739374748198587e-17 -1.5287756204836005e-16
vn 1 -9.44650000414451e-16 9.032576046296117e-17
vn 2.936725725624248e-16 0.5372996382978465 0.843391426731979
vn 2.936725725624248e-16 0.5372996382978465 0.843391426731979
vn 2.936725725624248e-16 0.5372996382978465 0.843391426731979
vn 1.0283694482855242e-16 0.18814916577839627 0.982140464198932
vn 1.0283694482855242e-16 0.18814916577839627 0.982140464198932
vn 1.0219908270837382e-16 0.18814916577839627 0.982140464198932
vn 1 -4.683492922506098e-16 0
vn 1 -1.2217615936690237e-15 2.8289989877875333e-16
vn 1 -9.739374748198587e-17 -1.5287756204836005e-16
vn 4.4305415235222807e-16 0.8106062830727391 0.5855915418130613
vn 4.4305415235222807e-16 0.8106062830727391 0.5855915418130613
vn 4.4305415235222807e-16 0.8106062830727391 0.5855915418130613
vn 2.936725725624248e-16 0.5372996382978465 0.843391426731979
vn 2.936725725624248e-16 0.5372996382978465 0.843391426731979
vn 2.955844318222544e-16 0.5372996382978465 0.843391426731979
vn 1 -6.332775655697772e-16 -3.697655825917399e-17
vn 1 -6.332775655697772e-16 -3.697655825917399e-17
vn 1 -1.2217615936690237e-15 2.8289989877875333e-16
vn 4.953618462103994e-16 0.9063077891669693 0.42261825717221474
vn 4.953618462103994e-16 0.9063077891669693 0.42261825717221474
vn 4.953618462103994e-16 0.9063077891669693 0.42261825717221474
vn 1 -3.6856544940204385e-16 -9.465058496018852e-17
vn 1 -6.332775655697772e-16 -3.697655825917399e-17
vn 1 -1.2217615936690237e-15 2.8289989877875333e-16
vn 1 -1.5827181196361026e-16 -1.4867048174824595e-16
vn 1 -3.6856544940204385e-16 -9.465058496018852e-17
vn 1 -1.2217615936690237e-15 2.8289989877875333e-16
vn 1 -1.116969112654445e-15 1.7318267556460954e-16
vn 1 -1.5827181196361026e-16 -1.4867048174824595e-16
vn 1 -1.2217615936690237e-15 2.8289989877875333e-16
vn 1 -4.683492922506098e-16 0
vn 1 -1.116969112654445e-15 1.7318267556460954e-16
vn 1 -1.2217615936690237e-15 2.8289989877875333e-16
vn 4.4305415235222807e-16 0.8106062830727391 0.5855915418130613
vn 4.4305415235222807e-16 0.8106062830727391 0.5855915418130613
vn 4.4059158940049124e-16 0.8106062830727391 0.5855915418130613
vn 1 -7.871844049979493e-16 8.097695326848603e-16
vn 1 -7.871844049979493e-16 8.097695326848603e-16
vn 1 -6.332775655697772e-16 -3.697655825917399e-17
vn 1.0351465805182058e-15 0.9469454916872364 0.3213942061911168
vn 1.0351465805182058e-15 0.9469454916872364 0.3213942061911168
vn 1.0351465805182058e-15 0.9469454916872364 0.3213942061911168
vn 1 -6.332775655697772e-16 -3.697655825917399e-17
vn 1 -7.871844049979493e-16 8.097695326848603e-16
vn 1 -6.332775655697772e-16 -3.697655825917399e-17
vn 4.953618462103994e-16 0.9063077891669693 0.42261825717221474
vn 4.953618462103994e-16 0.9063077891669693 0.42261825717221474
vn 9.364899743890603e-16 0.9063077891669693 0.42261825717221474
vn 1 -7.871844049979493e-16 8.097695326848603e-16
vn 1 -6.89854548946477e-16 -7.558473358533127e-17
vn 1 -7.871844049979493e-16 8.097695326848603e-16
vn 1.0866396944017025e-15 0.9940511335935899 0.10891438748530442
vn 1.0866396944017025e-15 0.9940511335935899 0.10891438748530442
vn 1.0866396944017025e-15 0.9940511335935899 0.10891438748530442
vn 1.0351465805182058e-15 0.9469454916872364 0.3213942061911168
vn 1.0351465805182058e-15 0.9469454916872364 0.3213942061911168
vn 1.034512788113258e-15 0.9469454916872364 0.3213942061911168
vn 1 -7.871844049979493e-16 8.097695326848603e-16
vn 1 -6.908054493088883e-16 0
vn 1 -6.89854548946477e-16 -7.558473358533127e-17
vn 1.093142711122892e-15 1 0
vn 1.093142711122892e-15 1 0
vn 1.093142711122892e-15 1 0
vn 1.093142711122892e-15 1 0
vn 1.093142711122892e-15 1 0
vn 1.093142711122892e-15 1 0
vn 1.0866396944017025e-15 0.9940511335935899 0.10891438748530442
vn 1.0866396944017025e-15 0.9940511335935899 0.10891438748530442
vn 1.087218959044034e-15 0.9940511335935899 0.10891438748530442
vn 1 -7.09047415558753e-16 0
vn 1 -7.09047415558753e-16 0
vn 1 -6.908054493088883e-16 0
vn 1.093142711122892e-15 1 0
vn 1.093142711122892e-15 1 0
vn 1.093142711122892e-15 1 0
vn 1 -5.3482824959939e-16 -1.850355967012991e-15
vn 1 -5.3482824959939e-16 -1.850355967012991e-15
vn 1 -6.908054493088883e-16 0
vn 1 -6.915600497857735e-16 1.2973022947759875e-16
vn 1 -6.908054493088883e-16 0
vn 1 -5.3482824959939e-16 -1.850355967012991e-15
vn 1 -6.869293206631343e-16 1.4533546951293343e-15
vn 1 -5.3482824959939e-16 -1.850355967012991e-15
vn 1 -6.908054493088883e-16 0
vn 1 -7.782340725421091e-16 5.2457186645426656e-15
vn 1 -6.869293206631343e-16 1.4533546951293343e-15
vn 1 -6.908054493088883e-16 0
vn 1 -7.871844049979493e-16 8.097695326848603e-16
vn 1 -7.782340725421091e-16 5.2457186645426656e-15
vn 1 -6.908054493088883e-16 0
vn 1 -5.987703962107027e-16 -1.946072622346638e-16
vn 1 -5.987703962107027e-16 -1.946072622346638e-16
vn 1 -6.908054493088883e-16 0
vn 1 -7.011956318959424e-16 2.2789662320871326e-16
vn 1 -6.908054493088883e-16 0
vn 1 -5.987703962107027e-16 -1.946072622346638e-16
vn 1 -9.876451810588425e-16 1.8985957639085444e-15
vn 1 -5.987703962107027e-16 -1.946072622346638e-16
vn 1 -6.908054493088883e-16 0
vn 1 -6.915600497857735e-16 1.2973022947759875e-16
vn 1 -9.876451810588425e-16 1.8985957639085444e-15
vn 1 -6.908054493088883e-16 0
vn 1 -7.011956318959424e-16 2.2789662320871326e-16
vn 1 -7.09047415558753e-16 0
vn 1 -6.908054493088883e-16 0
vn 1.093142711122892e-15 1 0
vn 1.093142711122892e-15 1 0
vn 1.093142711122892e-15 1 0
vn 1 -5.162009892376431e-16 -1.1311690906195713e-16
vn 1 -5.162009892376431e-16 -1.1311690906195713e-16
vn 1 -7.09047415558753e-16 0
vn 1.0238598334634387e-15 0.9366205660872904 -0.35034542266500873
vn 1.0238598334634387e-15 0.9366205660872904 -0.35034542266500873
vn 1.0238598334634387e-15 0.9366205660872904 -0.35034542266500873
vn 1 -6.914635939089049e-16 1.0586218436528736e-16
vn 1 -5.162009892376431e-16 -1.1311690906195713e-16
vn 1 -7.09047415558753e-16 0
vn 1 -6.784318861362791e-16 -5.018332987489604e-16
vn 1 -6.914635939089049e-16 1.0586218436528736e-16
vn 1 -7.09047415558753e-16 0
vn 1 -7.09047415558753e-16 0
vn 1 -6.784318861362791e-16 -5.018332987489604e-16
vn 1 -7.09047415558753e-16 0
vn 1.0238598334634387e-15 0.9366205660872904 -0.35034542266500873
vn 1.0238598334634387e-15 0.9366205660872904 -0.35034542266500873
vn 1.0238598334634387e-15 0.9366205660872904 -0.35034542266500873
vn 1 -5.162009892376431e-16 -1.1311690906195713e-16
vn 1 -4.525495866854754e-16 9.732251730507771e-17
vn 1 -5.162009892376431e-16 -1.1311690906195713e-16
vn 2.568759743890483e-16 0.2349885090026439 -0.9719981484739126
vn 2.568759743890483e-16 0.2349885090026439 -0.9719981484739126
vn 2.568759743890483e-16 0.2349885090026439 -0.9719981484739126
vn 2.568759743890483e-16 0.2349885090026439 -0.9719981484739126
vn 2.568759743890483e-16 0.2349885090026439 -0.9719981484739126
vn 2.568759743890483e-16 0.2349885090026439 -0.9719981484739126
vn -3.8648432602807457e-16 -0.7071067811865476 -0.7071067811865476
vn -3.8648432602807457e-16 -0.7071067811865476 -0.7071067811865476
vn -3.8648432602807457e-16 -0.7071067811865476 -0.7071067811865476
vn -7.729686520561491e-16 -0.7071067811865476 -0.7071067811865476
vn -3.8648432602807457e-16 -0.7071067811865476 -0.7071067811865476
vn -3.8648432602807457e-16 -0.7071067811865476 -0.7071067811865476
vn -3.869642240823887e-16 -0.7079848673758599 -0.7062276032319793
vn -3.869642240823887e-16 -0.7079848673758599 -0.7062276032319793
vn -3.869642240823887e-16 -0.7079848673758599 -0.7062276032319793
vn -3.869642240823887e-16 -0.7079848673758599 -0.7062276032319793
vn -3.869642240823887e-16 -0.7079848673758599 -0.7062276032319793
vn -3.869642240823887e-16 -0.7079848673758599 -0.7062276032319793
vn -4.3942081854234277e-16 -0.8039587815008626 -0.594685023897229
vn -4.3942081854234277e-16 -0.8039587815008626 -0.594685023897229
vn -4.3942081854234277e-16 -0.8039587815008626 -0.594685023897229
vn 1 -7.534204541105312e-16 -2.687404725159768e-16
vn 1 -7.534204541105312e-16 -2.687404725159768e-16
vn 1 -6.784318861362791e-16 -5.018332987489604e-16
vn -5.148023308574248e-16 -0.9418757868729736 -0.33596131042490157
vn -5.148023308574248e-16 -0.9418757868729736 -0.33596131042490157
vn -5.148023308574248e-16 -0.9418757868729736 -0.33596131042490157
vn 1 -5.4926656146005e-16 -7.559774877596143e-16
vn 1 -7.534204541105312e-16 -2.687404725159768e-16
vn 1 -6.784318861362791e-16 -5.018332987489604e-16
vn 1 -7.09047415558753e-16 0
vn 1 -5.4926656146005e-16 -7.559774877596143e-16
vn 1 -6.784318861362791e-16 -5.018332987489604e-16
vn -4.3942081854234277e-16 -0.8039587815008626 -0.594685023897229
vn -4.3942081854234277e-16 -0.8039587815008626 -0.594685023897229
vn -4.408396252126937e-16 -0.8039587815008626 -0.594685023897229
vn 1 -8.207624850930042e-16 -3.966116962849239e-17
vn 1 -8.207624850930042e-16 -3.966116962849239e-17
vn 1 -7.534204541105312e-16 -2.687404725159768e-16
vn -5.459343353150705e-16 -0.9988345158164206 -0.048266033748142576
vn -5.459343353150705e-16 -0.9988345158164206 -0.048266033748142576
vn -5.459343353150705e-16 -0.9988345158164206 -0.048266033748142576
vn 1 -7.534204541105312e-16 -2.687404725159768e-16
vn 1 -8.207624850930042e-16 -3.966116962849239e-17
vn 1 -7.534204541105312e-16 -2.687404725159768e-16
vn -5.148023308574248e-16 -0.9418757868729736 -0.33596131042490157
vn -5.148023308574248e-16 -0.9418757868729736 -0.33596131042490157
vn -5.150305003362436e-16 -0.9418757868729736 -0.33596131042490157
vn 1 -7.595761072360242e-16 1.9088202456752918e-16
vn 1 -7.595761072360242e-16 1.9088202456752918e-16
vn 1 -8.207624850930042e-16 -3.966116962849239e-17
vn -5.300894755626705e-16 -0.9698449459716179 0.24372275390966203
vn -5.300894755626705e-16 -0.9698449459716179 0.24372275390966203
vn -5.300894755626705e-16 -0.9698449459716179 0.24372275390966203
vn 1 -8.207624850930042e-16 -3.966116962849239e-17
vn 1 -7.595761072360242e-16 1.9088202456752918e-16
vn 1 -8.207624850930042e-16 -3.966116962849239e-17
vn -5.459343353150705e-16 -0.9988345158164206 -0.048266033748142576
vn -5.459343353150705e-16 -0.9988345158164206 -0.048266033748142576
vn -5.459890218745718e-16 -0.9988345158164206 -0.048266033748142576
vn 1 -6.915600497857735e-16 1.2973022947759875e-16
vn 1 -5.3482824959939e-16 -1.850355967012991e-15
vn 1 -7.595761072360242e-16 1.9088202456752918e-16
vn -4.686757679173981e-16 -0.8574832853884087 0.5145118222932307
vn -4.686757679173981e-16 -0.8574832853884087 0.5145118222932307
vn -4.686757679173981e-16 -0.8574832853884087 0.5145118222932307
vn 1 -7.595761072360242e-16 1.9088202456752918e-16
vn 1 -6.915600497857735e-16 1.2973022947759875e-16
vn 1 -7.595761072360242e-16 1.9088202456752918e-16
vn -5.300894755626705e-16 -0.9698449459716179 0.24372275390966203
vn -5.300894755626705e-16 -0.9698449459716179 0.24372275390966203
vn -5.289938913751881e-16 -0.9698449459716179 0.24372275390966203
vn -3.6687665399039665e-16 -0.671232884644597 0.7412465275275784
vn -3.6687665399039665e-16 -0.671232884644597 0.7412465275275784
vn -3.6687665399039665e-16 -0.671232884644597 0.7412465275275784
vn -4.686757679173981e-16 -0.8574832853884087 0.5145118222932307
vn -4.686757679173981e-16 -0.8574832853884087 0.5145118222932307
vn -4.680317582559988e-16 -0.8574832853884087 0.5145118222932307
vn -2.335625778676674e-16 -0.4273231487534565 0.9040989583775833
vn -2.335625778676674e-16 -0.4273231487534565 0.9040989583775833
vn -2.335625778676674e-16 -0.4273231487534565 0.9040989583775833
vn -3.6687665399039665e-16 -0.671232884644597 0.7412465275275784
vn -3.6687665399039665e-16 -0.671232884644597 0.7412465275275784
vn -3.662901895487511e-16 -0.671232884644597 0.7412465275275784
vn -8.020928042054712e-17 -0.1467498809739976 0.9891736310851182
vn -8.020928042054712e-17 -0.1467498809739976 0.9891736310851182
vn -8.020928042054712e-17 -0.1467498809739976 0.9891736310851182
vn -2.335625778676674e-16 -0.4273231487534565 0.9040989583775833
vn -2.335625778676674e-16 -0.4273231487534565 0.9040989583775833
vn -2.3392606086941766e-16 -0.4273231487534565 0.9040989583775833
vn -5.46571355561446e-16 -1 3.0893161411595397e-15
vn -5.46571355561446e-16 -1 3.0893161411595397e-15
vn -5.46571355561446e-16 -1 3.0893161411595397e-15
vn -5.46571355561446e-16 -1 3.0893161411595397e-15
vn -5.46571355561446e-16 -1 3.0893161411595397e-15
vn -5.46571355561446e-16 -1 3.0893161411595397e-15
vn -8.020928042054712e-17 -0.1467498809739976 0.9891736310851182
vn -8.020928042054712e-17 -0.1467498809739976 0.9891736310851182
vn -8.068938927342216e-17 -0.1467498809739976 0.9891736310851182
vn -5.46571355561446e-16 -1 -6.575290717617335e-16
vn -5.46571355561446e-16 -1 3.0893161411595397e-15
vn -5.46571355561446e-16 -1 -6.575290717617335e-16
vn -5.46571355561446e-16 -1 3.0893161411595397e-15
vn -5.46571355561446e-16 -1 3.0893161411595397e-15
vn -5.46571355561446e-16 -1 -6.575290717617335e-16
vn -5.293932125528578e-16 -0.9685710943292982 -0.24873687951276136
vn -5.293932125528578e-16 -0.9685710943292982 -0.24873687951276136
vn -5.293932125528578e-16 -0.9685710943292982 -0.24873687951276136
vn -3.983788919694854e-16 -0.7288689620778794 -0.684653223259421
vn -3.983788919694854e-16 -0.7288689620778794 -0.684653223259421
vn -3.983788919694854e-16 -0.7288689620778794 -0.684653223259421
vn -5.293932125528578e-16 -0.9685710943292982 -0.24873687951276136
vn -5.293932125528578e-16 -0.9685710943292982 -0.24873687951276136
vn -5.311068659219663e-16 -0.9685710943292982 -0.24873687951276136
vn -1.6877373483497971e-16 -0.30878626954420485 -0.9511314523981286
vn -1.6877373483497971e-16 -0.30878626954420485 -0.9511314523981286
vn -1.6877373483497971e-16 -0.30878626954420485 -0.9511314523981286
vn -3.983788919694854e-16 -0.7288689620778794 -0.684653223259421
vn -3.983788919694854e-16 -0.7288689620778794 -0.684653223259421
vn -4.0235369995765005e-16 -0.7288689620778794 -0.684653223259421
vn 0 0 -1
vn 0 0 -1
vn 0 0 -1
vn 0 0 -1
vn 0 0 -1
vn 0 0 -1
vn -1.6877373483497971e-16 -0.30878626954420485 -0.9511314523981286
vn -1.6877373483497971e-16 -0.30878626954420485 -0.9511314523981286
vn -1.6630619553836649e-16 -0.30878626954420485 -0.9511314523981286
vn -5.46571355561446e-16 -1 0
vn -5.46571355561446e-16 -1 0
vn -5.46571355561446e-16 -1 0
vn -5.198062195164579e-16 -0.9510308606091802 -0.309095943307191
vn -5.198062195164579e-16 -0.9510308606091802 -0.309095943307191
vn -5.198062195164579e-16 -0.9510308606091802 -0.309095943307191
vn -5.198062195164579e-16 -0.9510308606091802 0.309095943307191
vn -5.198062195164579e-16 -0.9510308606091802 0.309095943307191
vn -5.198062195164579e-16 -0.9510308606091802 0.309095943307191
vn -5.198062195164579e-16 -0.9510308606091802 0.309095943307191
vn -5.198062195164579e-16 -0.9510308606091802 0.309095943307191
vn -5.206311765729649e-16 -0.9510308606091802 0.309095943307191
vn -3.212730030448407e-16 -0.5877969920214391 -0.8090084648324444
vn -3.212730030448407e-16 -0.5877969920214391 -0.8090084648324444
vn -3.212730030448407e-16 -0.5877969920214391 -0.8090084648324444
vn -5.198062195164579e-16 -0.9510308606091802 -0.309095943307191
vn -5.198062195164579e-16 -0.9510308606091802 -0.309095943307191
vn -5.198062195164579e-16 -0.9510308606091802 -0.309095943307191
vn 0 0 -1
vn 0 0 -1
vn 0 0 -1
vn -3.212730030448407e-16 -0.5877969920214391 -0.8090084648324444
vn -3.212730030448407e-16 -0.5877969920214391 -0.8090084648324444
vn -3.222359470690206e-16 -0.5877969920214391 -0.8090084648324444
vn 3.212730030448407e-16 0.5877969920214391 -0.8090084648324444
vn 3.212730030448407e-16 0.5877969920214391 -0.8090084648324444
vn 3.212730030448407e-16 0.5877969920214391 -0.8090084648324444
vn 0 0 -1
vn 0 0 -1
vn 0 0 -1
vn 5.198062195164579e-16 0.9510308606091802 -0.309095943307191
vn 5.198062195164579e-16 0.9510308606091802 -0.309095943307191
vn 5.198062195164579e-16 0.9510308606091802 -0.309095943307191
vn 3.212730030448407e-16 0.5877969920214391 -0.8090084648324444
vn 3.212730030448407e-16 0.5877969920214391 -0.8090084648324444
vn 3.222359470690206e-16 0.5877969920214391 -0.8090084648324444
vn 5.198062195164579e-16 0.9510308606091802 0.309095943307191
vn 5.198062195164579e-16 0.9510308606091802 0.309095943307191
vn 5.198062195164579e-16 0.9510308606091802 0.309095943307191
vn 5.198062195164579e-16 0.9510308606091802 -0.309095943307191
vn 5.198062195164579e-16 0.9510308606091802 -0.309095943307191
vn 5.183275119182836e-16 0.9510308606091802 -0.309095943307191
vn 3.212730030448407e-16 0.5877969920214391 0.8090084648324444
vn 3.212730030448407e-16 0.5877969920214391 0.8090084648324444
vn 3.212730030448407e-16 0.5877969920214391 0.8090084648324444
vn 5.198062195164579e-16 0.9510308606091802 0.309095943307191
vn 5.198062195164579e-16 0.9510308606091802 0.309095943307191
vn 5.206311765729649e-16 0.9510308606091802 0.309095943307191
vn 0 0 1
vn 0 0 1
vn 0 0 1
vn 3.212730030448407e-16 0.5877969920214391 0.8090084648324444
vn 3.212730030448407e-16 0.5877969920214391 0.8090084648324444
vn 3.222359470690206e-16 0.5877969920214391 0.8090084648324444
vn -3.212730030448407e-16 -0.5877969920214391 0.8090084648324444
vn -3.212730030448407e-16 -0.5877969920214391 0.8090084648324444
vn -3.212730030448407e-16 -0.5877969920214391 0.8090084648324444
vn 0 0 1
vn 0 0 1
vn 0 0 1
vn -3.212730030448407e-16 -0.5877969920214391 0.8090084648324444
vn -3.212730030448407e-16 -0.5877969920214391 0.8090084648324444
vn -3.1993426759397826e-16 -0.5877969920214391 0.8090084648324444
vn -1 0 0
vn -1 0 0
vn -1 0 0
vn -1 6.503282858584471e-16 2.926477326067681e-17
vn -1 0 0
vn -1 0 0
vn -1 3.1485757837593123e-16 -9.380581782606813e-16
vn -1 6.503282858584471e-16 2.926477326067681e-17
vn -1 0 0
vn -1 6.987849231884975e-16 1.0968726207061263e-15
vn -1 3.1485757837593123e-16 -9.380581782606813e-16
vn -1 0 0
vn -1 4.683492922506098e-16 -2.576620227197194e-15
vn -1 6.987849231884975e-16 1.0968726207061263e-15
vn -1 0 0
vn -1 6.503282858584471e-16 2.926477326067681e-17
vn -1 1.116969112654445e-15 -1.7318267556460954e-16
vn -1 0 0
vn -1 1.1295279642842661e-15 1.0610068104996559e-15
vn -1 1.1295279642842661e-15 1.0610068104996559e-15
vn -1 1.116969112654445e-15 -1.7318267556460954e-16
vn -1 6.503282858584471e-16 2.926477326067681e-17
vn -1 1.1295279642842661e-15 1.0610068104996559e-15
vn -1 1.116969112654445e-15 -1.7318267556460954e-16
vn -1 1.1295279642842661e-15 1.0610068104996559e-15
vn -1 6.920091360664959e-16 1.777135342088116e-16
vn -1 1.1295279642842661e-15 1.0610068104996559e-15
vn -1 6.908054493088883e-16 5.1911386886832705e-31
vn -1 6.908054493088883e-16 5.1911386886832705e-31
vn -1 6.920091360664959e-16 1.777135342088116e-16
vn -1 7.38355073171107e-16 8.089874698116384e-17
vn -1 6.908054493088883e-16 5.1911386886832705e-31
vn -1 6.920091360664959e-16 1.777135342088116e-16
vn -1 1.1295279642842661e-15 1.0610068104996559e-15
vn -1 7.38355073171107e-16 8.089874698116384e-17
vn -1 6.920091360664959e-16 1.777135342088116e-16
vn -1 6.908054493088883e-16 -2.4389901584081502e-30
vn -1 6.908054493088883e-16 -2.4389901584081502e-30
vn -1 6.908054493088883e-16 5.1911386886832705e-31
vn -1 6.908054493088883e-16 5.1911386886832705e-31
vn -1 6.908054493088883e-16 -2.4389901584081502e-30
vn -1 6.908054493088883e-16 5.1911386886832705e-31
vn -1 2.1597865788260844e-16 -1.4558129965005031e-15
vn -1 2.1597865788260844e-16 -1.4558129965005031e-15
vn -1 6.908054493088883e-16 -2.4389901584081502e-30
vn -1 6.908054493088883e-16 -2.4389901584081502e-30
vn -1 2.1597865788260844e-16 -1.4558129965005031e-15
vn -1 6.908054493088883e-16 -2.4389901584081502e-30
vn -1 2.1597865788260844e-16 -1.4558129965005031e-15
vn -1 3.990861111344252e-16 -8.443570642948056e-16
vn -1 2.1597865788260844e-16 -1.4558129965005031e-15
vn -1 2.1597865788260844e-16 -1.4558129965005031e-15
vn -1 9.7654248494447e-16 1.3625681156558423e-15
vn -1 3.990861111344252e-16 -8.443570642948056e-16
vn -1 6.02357157225851e-16 -3.614296468076796e-16
vn -1 6.02357157225851e-16 -3.614296468076796e-16
vn -1 9.7654248494447e-16 1.3625681156558423e-15
vn -1 1.202137534347036e-15 2.4036768516750738e-15
vn -1 9.7654248494447e-16 1.3625681156558423e-15
vn -1 2.1597865788260844e-16 -1.4558129965005031e-15
vn -1 1.202137534347036e-15 2.4036768516750738e-15
vn -1 6.02357157225851e-16 -3.614296468076796e-16
vn -1 9.7654248494447e-16 1.3625681156558423e-15
vn -1 7.595761072360242e-16 -1.9088202456752918e-16
vn -1 7.595761072360242e-16 -1.9088202456752918e-16
vn -1 6.02357157225851e-16 -3.614296468076796e-16
vn -1 6.02357157225851e-16 -3.614296468076796e-16
vn -1 7.595761072360242e-16 -1.9088202456752918e-16
vn -1 6.02357157225851e-16 -3.614296468076796e-16
vn -1 8.207624850930042e-16 3.966116962849239e-17
vn -1 8.207624850930042e-16 3.966116962849239e-17
vn -1 7.595761072360242e-16 -1.9088202456752918e-16
vn -1 7.595761072360242e-16 -1.9088202456752918e-16
vn -1 8.207624850930042e-16 3.966116962849239e-17
vn -1 7.595761072360242e-16 -1.9088202456752918e-16
vn -1 6.096618634838537e-16 2.1746264637130817e-16
vn -1 6.096618634838537e-16 2.1746264637130817e-16
vn -1 8.207624850930042e-16 3.966116962849239e-17
vn -1 8.107624670572792e-16 1.1158846987237227e-15
vn -1 6.096618634838537e-16 2.1746264637130817e-16
vn -1 8.207624850930042e-16 3.966116962849239e-17
vn -1 8.207624850930042e-16 3.966116962849239e-17
vn -1 8.107624670572792e-16 1.1158846987237227e-15
vn -1 8.207624850930042e-16 3.966116962849239e-17
vn -1 2.1597865788260844e-16 -1.4558129965005031e-15
vn -1 6.784318861362791e-16 5.018332987489604e-16
vn -1 6.096618634838537e-16 2.1746264637130817e-16
vn -1 6.096618634838537e-16 2.1746264637130817e-16
vn -1 2.1597865788260844e-16 -1.4558129965005031e-15
vn -1 6.096618634838537e-16 2.1746264637130817e-16
vn -1 3.45618850404892e-16 -4.508485327691519e-16
vn -1 3.45618850404892e-16 -4.508485327691519e-16
vn -1 6.784318861362791e-16 5.018332987489604e-16
vn -1 2.1597865788260844e-16 -1.4558129965005031e-15
vn -1 3.45618850404892e-16 -4.508485327691519e-16
vn -1 6.784318861362791e-16 5.018332987489604e-16
vn -1 3.45618850404892e-16 -4.508485327691519e-16
vn -1 4.525495866854754e-16 -9.732251730507771e-17
vn -1 3.45618850404892e-16 -4.508485327691519e-16
vn -1 6.194592818265074e-16 -2.0133138034688286e-16
vn -1 6.194592818265074e-16 -2.0133138034688286e-16
vn -1 2.1597865788260844e-16 -1.4558129965005031e-15
vn -1 6.748031969902417e-16 2.1931878672631797e-16
vn -1 2.1597865788260844e-16 -1.4558129965005031e-15
vn -1 6.194592818265074e-16 -2.0133138034688286e-16
vn -1 8.005458203452938e-16 2.156108179433955e-15
vn -1 6.194592818265074e-16 -2.0133138034688286e-16
vn -1 2.1597865788260844e-16 -1.4558129965005031e-15
vn -1 6.096618634838537e-16 2.1746264637130817e-16
vn -1 8.005458203452938e-16 2.156108179433955e-15
vn -1 2.1597865788260844e-16 -1.4558129965005031e-15
vn -1 6.748031969902417e-16 2.1931878672631797e-16
vn -1 1.202137534347036e-15 2.4036768516750738e-15
vn -1 2.1597865788260844e-16 -1.4558129965005031e-15
f 1//1 2//2 3//3
f 4//4 5//5 6//6
f 7//7 8//8 9//9
f 10//10 11//11 12//12
f 13//13 14//14 15//15
f 16//16 17//17 18//18
f 19//19 20//20 21//21
f 22//22 23//23 24//24
f 25//25 26//26 27//27
f 28//28 29//29 30//30
f 31//31 32//32 33//33
f 34//34 35//35 36//36
f 37//37 38//38 39//39
f 40//40 41//41 42//42
f 43//43 44//44 45//45
f 46//46 47//47 48//48
f 49//49 50//50 51//51
f 52//52 53//53 54//54
f 55//55 56//56 57//57
f 58//58 59//59 60//60
f 61//61 62//62 63//63
f 64//64 65//65 66//66
f 67//67 68//68 69//69
f 70//70 71//71 72//72
f 73//73 74//74 75//75
f 76//76 77//77 78//78
f 79//79 80//80 81//81
f 82//82 83//83 84//84
f 85//85 86//86 87//87
f 88//88 89//89 90//90
f 91//91 92//92 93//93
f 94//94 95//95 96//96
f 97//97 98//98 99//99
f 100//100 101//101 102//102
f 103//103 104//104 105//105
f 106//106 107//107 108//108
f 109//109 110//110 111//111
f 112//112 113//113 114//114
f 115//115 116//116 117//117
f 118//118 119//119 120//120
f 121//121 122//122 123//123
f 124//124 125//125 126//126
f 127//127 128//128 129//129
f 130//130 131//131 132//132
f 133//133 134//134 135//135
f 136//136 137//137 138//138
f 139//139 140//140 141//141
f 142//142 143//143 144//144
f 145//145 146//146 147//147
f 148//148 149//149 150//150
f 151//151 152//152 153//153
f 154//154 155//155 156//156
f 157//157 158//158 159//159
f 160//160 161//161 162//162
f 163//163 164//164 165//165
f 166//166 167//167 168//168
f 169//169 170//170 171//171
f 172//172 173//173 174//174
f 175//175 176//176 177//177
f 178//178 179//179 180//180
f 181//181 182//182 183//183
f 184//184 185//185 186//186
f 187//187 188//188 189//189
f 190//190 191//191 192//192
f 193//193 194//194 195//195
f 196//196 197//197 198//198
f 199//199 200//200 201//201
f 202//202 203//203 204//204
f 205//205 206//206 207//207
f 208//208 209//209 210//210
f 211//211 212//212 213//213
f 214//214 215//215 216//216
f 217//217 218//218 219//219
f 220//220 221//221 222//222
f 223//223 224//224 225//225
f 226//226 227//227 228//228
f 229//229 230//230 231//231
f 232//232 233//233 234//234
f 235//235 236//236 237//237
f 238//238 239//239 240//240
f 241//241 242//242 243//243
f 244//244 245//245 246//246
f 247//247 248//248 249//249
f 250//250 251//251 252//252
f 253//253 254//254 255//255
f 256//256 257//257 258//258
f 259//259 260//260 261//261
f 262//262 263//263 264//264
f 265//265 266//266 267//267
f 268//268 269//269 270//270
f 271//271 272//272 273//273
f 274//274 275//275 276//276
f 277//277 278//278 279//279
f 280//280 281//281 282//282
f 283//283 284//284 285//285
f 286//286 287//287 288//288
f 289//289 290//290 291//291
f 292//292 293//293 294//294
f 295//295 296//296 297//297
f 298//298 299//299 300//300
f 301//301 302//302 303//303
f 304//304 305//305 306//306
f 307//307 308//308 309//309
f 310//310 311//311 312//312
f 313//313 314//314 315//315
f 316//316 317//317 318//318
f 319//319 320//320 321//321
f 322//322 323//323 324//324
f 325//325 326//326 327//327
f 328//328 329//329 330//330
f 331//331 332//332 333//333
f 334//334 335//335 336//336
f 337//337 338//338 339//339
f 340//340 341//341 342//342
f 343//343 344//344 345//345
f 346//346 347//347 348//348
f 349//349 350//350 351//351
f 352//352 353//353 354//354
f 355//355 356//356 357//357
f 358//358 359//359 360//360
f 361//361 362//362 363//363
f 364//364 365//365 366//366
f 367//367 368//368 369//369
f 370//370 371//371 372//372
f 373//373 374//374 375//375
f 376//376 377//377 378//378
f 379//379 380//380 381//381
f 382//382 383//383 384//384
f 385//385 386//386 387//387
f 388//388 389//389 390//390
f 391//391 392//392 393//393
f 394//394 395//395 396//396
f 397//397 398//398 399//399
f 400//400 401//401 402//402
f 403//403 404//404 405//405
f 406//406 407//407 408//408
f 409//409 410//410 411//411
f 412//412 413//413 414//414
f 415//415 416//416 417//417
f 418//418 419//419 420//420
f 421//421 422//422 423//423
f 424//424 425//425 426//426
f 427//427 428//428 429//429
f 430//430 431//431 432//432
f 433//433 434//434 435//435
f 436//436 437//437 438//438
f 439//439 440//440 441//441
f 442//442 443//443 444//444
f 445//445 446//446 447//447
f 448//448 449//449 450//450
f 451//451 452//452 453//453
f 454//454 455//455 456//456
